<?xml version="1.0" encoding="utf-8" standalone="no"?>
<!DOCTYPE svg PUBLIC "-//W3C//DTD SVG 1.1//EN"
  "http://www.w3.org/Graphics/SVG/1.1/DTD/svg11.dtd">
<!-- Created with matplotlib (https://matplotlib.org/) -->
<svg height="288pt" version="1.1" viewBox="0 0 288 288" width="288pt" xmlns="http://www.w3.org/2000/svg" xmlns:xlink="http://www.w3.org/1999/xlink">
 <defs>
  <style type="text/css">
*{stroke-linecap:butt;stroke-linejoin:round;}
  </style>
 </defs>
 <g id="figure_1">
  <g id="patch_1">
   <path d="M 0 288 
L 288 288 
L 288 0 
L 0 0 
z
" style="fill:#ffffff;"/>
  </g>
  <g id="axes_1">
   <g id="line2d_1">
    <path clip-path="url(#p647ea95eb5)" d="M 144 85.9968 
L 144 41.9904 
L 144 41.9904 
" style="fill:none;stroke:#d62728;stroke-linecap:square;stroke-width:3;"/>
   </g>
   <g id="line2d_2">
    <path clip-path="url(#p647ea95eb5)" d="M 144 85.9968 
L 144 41.9904 
L 144 41.9904 
" style="fill:none;stroke:#d62728;stroke-linecap:square;stroke-width:3;"/>
   </g>
   <g id="line2d_3">
    <path clip-path="url(#p647ea95eb5)" d="M 132.691902 87.109584 
L 130.06204 76.902352 
L 126.384483 63.576516 
L 115.525055 24.74698 
L 111.991356 11.025495 
L 111.031458 7.109436 
L 111.031458 7.109436 
" style="fill:none;stroke:#d62728;stroke-linecap:square;stroke-width:3;"/>
   </g>
   <g id="line2d_4">
    <path clip-path="url(#p647ea95eb5)" d="M 155.308098 87.109584 
L 157.93796 76.902352 
L 161.615517 63.576516 
L 172.474945 24.74698 
L 176.008644 11.025495 
L 176.968542 7.109436 
L 176.968542 7.109436 
" style="fill:none;stroke:#d62728;stroke-linecap:square;stroke-width:3;"/>
   </g>
   <g id="line2d_5">
    <path clip-path="url(#p647ea95eb5)" d="M 121.82022 90.40383 
L 118.322905 84.242741 
L 113.864324 76.842213 
L 108.015117 67.592487 
L 88.772646 37.509752 
L 83.775411 29.089666 
L 79.360405 21.197798 
L 77.193565 17.131094 
L 77.193565 17.131094 
" style="fill:none;stroke:#d62728;stroke-linecap:square;stroke-width:3;"/>
   </g>
   <g id="line2d_6">
    <path clip-path="url(#p647ea95eb5)" d="M 166.17978 90.40383 
L 169.677095 84.242741 
L 174.135676 76.842213 
L 179.984883 67.592487 
L 199.227354 37.509752 
L 204.224589 29.089666 
L 208.639595 21.197798 
L 210.806435 17.131094 
L 210.806435 17.131094 
" style="fill:none;stroke:#d62728;stroke-linecap:square;stroke-width:3;"/>
   </g>
   <g id="line2d_7">
    <path clip-path="url(#p647ea95eb5)" d="M 112.045285 95.995412 
L 107.948461 92.029487 
L 103.241472 87.788945 
L 97.959585 83.330432 
L 91.206723 77.940538 
L 80.688203 69.885973 
L 69.28861 61.088894 
L 62.592369 55.630489 
L 56.938015 50.723528 
L 51.877246 46.017399 
L 47.276973 41.414373 
L 46.283038 40.372446 
L 46.283038 40.372446 
" style="fill:none;stroke:#d62728;stroke-linecap:square;stroke-width:3;"/>
   </g>
   <g id="line2d_8">
    <path clip-path="url(#p647ea95eb5)" d="M 175.954715 95.995412 
L 180.051539 92.029487 
L 184.758528 87.788945 
L 190.040415 83.330432 
L 196.793277 77.940538 
L 207.311797 69.885973 
L 218.71139 61.088894 
L 225.407631 55.630489 
L 231.061985 50.723528 
L 236.122754 46.017399 
L 240.723027 41.414373 
L 241.716962 40.372446 
L 241.716962 40.372446 
" style="fill:none;stroke:#d62728;stroke-linecap:square;stroke-width:3;"/>
   </g>
   <g id="line2d_9">
    <path clip-path="url(#p647ea95eb5)" d="M 103.223398 103.044849 
L 99.221165 101.134802 
L 94.977472 99.34179 
L 90.115858 97.542094 
L 85.182027 95.950782 
L 79.634929 94.39704 
L 73.476455 92.906534 
L 66.147926 91.36755 
L 53.693142 89.028642 
L 44.089052 87.123875 
L 37.921012 85.680717 
L 32.925012 84.301459 
L 28.541983 82.885813 
L 24.231336 81.260866 
L 20.535839 79.653097 
L 17.180675 77.993426 
L 17.180675 77.993426 
" style="fill:none;stroke:#d62728;stroke-linecap:square;stroke-width:3;"/>
   </g>
   <g id="line2d_10">
    <path clip-path="url(#p647ea95eb5)" d="M 184.776602 103.044849 
L 188.778835 101.134802 
L 193.022528 99.34179 
L 197.884142 97.542094 
L 202.817973 95.950782 
L 208.365071 94.39704 
L 214.523545 92.906534 
L 221.852074 91.36755 
L 234.306858 89.028642 
L 243.910948 87.123875 
L 250.078988 85.680717 
L 255.074988 84.301459 
L 259.458017 82.885813 
L 263.768664 81.260866 
L 267.464161 79.653097 
L 270.819325 77.993426 
L 270.819325 77.993426 
" style="fill:none;stroke:#d62728;stroke-linecap:square;stroke-width:3;"/>
   </g>
   <g id="line2d_11">
    <path clip-path="url(#p647ea95eb5)" d="M 96.02977 111.717753 
L 92.755302 111.486702 
L 89.301571 111.446029 
L 85.850039 111.612075 
L 82.414482 111.982961 
L 79.007123 112.557526 
L 75.640349 113.334962 
L 72.327823 114.315907 
L 69.083089 115.500851 
L 65.92 116.890361 
L 62.859491 118.48835 
L 59.921606 120.298309 
L 57.124818 122.322967 
L 54.924255 124.177621 
L 52.865125 126.188086 
L 50.972374 128.355422 
L 49.276687 130.67951 
L 48.084355 132.648359 
L 47.06071 134.707888 
L 46.224643 136.852551 
L 45.595455 139.064623 
L 45.192371 141.328682 
L 45.029019 143.6253 
L 45.110079 145.92632 
L 45.432664 148.206751 
L 45.987811 150.442161 
L 46.758186 152.613241 
L 47.725053 154.704485 
L 48.867001 156.705393 
L 50.509841 159.070618 
L 52.357825 161.279295 
L 54.379087 163.330391 
L 56.547941 165.224815 
L 58.842337 166.965201 
L 61.735659 168.854369 
L 64.757421 170.530493 
L 67.8862 171.997594 
L 71.103593 173.258642 
L 74.393824 174.315439 
L 77.742291 175.169198 
L 81.136108 175.819936 
L 84.562545 176.267357 
L 88.009498 176.51042 
L 91.464647 176.547513 
L 94.91568 176.376776 
L 96.06298 176.273385 
L 96.06298 176.273385 
" style="fill:none;stroke:#000000;stroke-linecap:square;stroke-width:3;"/>
   </g>
   <g id="line2d_12">
    <path clip-path="url(#p647ea95eb5)" d="M 191.97023 111.717753 
L 195.244698 111.486702 
L 198.698429 111.446029 
L 202.149961 111.612075 
L 205.585518 111.982961 
L 208.992877 112.557526 
L 212.359651 113.334962 
L 215.672177 114.315907 
L 218.916911 115.500851 
L 222.08 116.890361 
L 225.140509 118.48835 
L 228.078394 120.298309 
L 230.875182 122.322967 
L 233.075745 124.177621 
L 235.134875 126.188086 
L 237.027626 128.355422 
L 238.723313 130.67951 
L 239.915645 132.648359 
L 240.93929 134.707888 
L 241.775357 136.852551 
L 242.404545 139.064623 
L 242.807629 141.328682 
L 242.970981 143.6253 
L 242.889921 145.92632 
L 242.567336 148.206751 
L 242.012189 150.442161 
L 241.241814 152.613241 
L 240.274947 154.704485 
L 239.132999 156.705393 
L 237.490159 159.070618 
L 235.642175 161.279295 
L 233.620913 163.330391 
L 231.452059 165.224815 
L 229.157663 166.965201 
L 226.264341 168.854369 
L 223.242579 170.530493 
L 220.1138 171.997594 
L 216.896407 173.258642 
L 213.606176 174.315439 
L 210.257709 175.169198 
L 206.863892 175.819936 
L 203.437455 176.267357 
L 199.990502 176.51042 
L 196.535353 176.547513 
L 193.08432 176.376776 
L 191.93702 176.273385 
L 191.93702 176.273385 
" style="fill:none;stroke:#000000;stroke-linecap:square;stroke-width:3;"/>
   </g>
   <g id="line2d_13">
    <path clip-path="url(#p647ea95eb5)" d="M 90.631059 121.598541 
L 88.123223 122.615782 
L 85.559548 123.922405 
L 83.12684 125.461255 
L 81.296391 126.858978 
L 79.587626 128.402944 
L 78.019651 130.089241 
L 76.612683 131.912191 
L 75.388542 133.862245 
L 74.368507 135.926256 
L 73.57331 138.087013 
L 73.021079 140.32184 
L 72.726385 142.605349 
L 72.697137 144.907589 
L 72.933509 147.198116 
L 73.430591 149.44678 
L 74.174668 151.626392 
L 75.14877 153.713827 
L 76.332361 155.689884 
L 77.70342 157.541291 
L 79.240288 159.257408 
L 80.921928 160.831921 
L 82.728963 162.261166 
L 84.643249 163.542737 
L 87.163397 164.935324 
L 89.85249 166.116125 
L 90.770605 166.456089 
L 90.770605 166.456089 
" style="fill:none;stroke:#000000;stroke-linecap:square;stroke-width:3;"/>
   </g>
   <g id="line2d_14">
    <path clip-path="url(#p647ea95eb5)" d="M 197.368941 121.598541 
L 199.876777 122.615782 
L 202.440452 123.922405 
L 204.87316 125.461255 
L 206.703609 126.858978 
L 208.412374 128.402944 
L 209.980349 130.089241 
L 211.387317 131.912191 
L 212.611458 133.862245 
L 213.631493 135.926256 
L 214.42669 138.087013 
L 214.978921 140.32184 
L 215.273615 142.605349 
L 215.302863 144.907589 
L 215.066491 147.198116 
L 214.569409 149.44678 
L 213.825332 151.626392 
L 212.85123 153.713827 
L 211.667639 155.689884 
L 210.29658 157.541291 
L 208.759712 159.257408 
L 207.078072 160.831921 
L 205.271037 162.261166 
L 203.356751 163.542737 
L 200.836603 164.935324 
L 198.14751 166.116125 
L 197.229395 166.456089 
L 197.229395 166.456089 
" style="fill:none;stroke:#000000;stroke-linecap:square;stroke-width:3;"/>
   </g>
   <g id="line2d_15">
    <path clip-path="url(#p647ea95eb5)" d="M 87.191512 132.333843 
L 87.155472 132.378774 
L 87.119556 132.423805 
L 87.083764 132.468934 
L 87.048096 132.514161 
L 87.012553 132.559487 
L 86.977136 132.60491 
L 86.941836 132.650425 
L 86.941836 132.650425 
L 86.941836 132.650425 
L 86.596701 133.111506 
L 86.263894 133.581534 
L 85.944593 134.060817 
L 85.639429 134.548903 
L 85.348891 135.045432 
L 85.07298 135.550402 
L 84.811826 136.06369 
L 84.56617 136.584599 
L 84.33647 137.112697 
L 84.123128 137.647607 
L 83.926547 138.188947 
L 83.747047 138.736212 
L 83.584887 139.288814 
L 83.440403 139.84627 
L 83.313928 140.408098 
L 83.205776 140.973803 
L 83.115996 141.542712 
L 83.04472 142.114208 
L 82.992144 142.687716 
L 82.958463 143.262662 
L 82.943766 143.838445 
L 82.947882 144.414396 
L 82.970834 144.989897 
L 83.012657 145.564333 
L 83.073385 146.137088 
L 83.152783 146.707577 
L 83.250582 147.275214 
L 83.366649 147.839404 
L 83.500851 148.399548 
L 83.653013 148.95507 
L 83.822679 149.50553 
L 84.00953 150.050425 
L 84.213289 150.589228 
L 84.433677 151.121413 
L 84.670321 151.646556 
L 84.922729 152.164359 
L 85.190524 152.674402 
L 85.47333 153.176265 
L 85.770767 153.669534 
L 86.082369 154.154001 
L 86.407682 154.629424 
L 86.746285 155.095493 
L 87.097751 155.551901 
L 87.097751 155.551901 
L 87.133607 155.596981 
L 87.169578 155.641967 
L 87.205673 155.686854 
L 87.241892 155.731642 
L 87.278232 155.77633 
L 87.314695 155.820919 
L 87.351279 155.865408 
" style="fill:none;stroke:#000000;stroke-linecap:square;stroke-width:3;"/>
   </g>
   <g id="line2d_16">
    <path clip-path="url(#p647ea95eb5)" d="M 200.808488 132.333843 
L 200.844528 132.378774 
L 200.880444 132.423805 
L 200.916236 132.468934 
L 200.951904 132.514161 
L 200.987447 132.559487 
L 201.022864 132.60491 
L 201.058164 132.650425 
L 201.058164 132.650425 
L 201.058164 132.650425 
L 201.403299 133.111506 
L 201.736106 133.581534 
L 202.055407 134.060817 
L 202.360571 134.548903 
L 202.651109 135.045432 
L 202.92702 135.550402 
L 203.188174 136.06369 
L 203.43383 136.584599 
L 203.66353 137.112697 
L 203.876872 137.647607 
L 204.073453 138.188947 
L 204.252953 138.736212 
L 204.415113 139.288814 
L 204.559597 139.84627 
L 204.686072 140.408098 
L 204.794224 140.973803 
L 204.884004 141.542712 
L 204.95528 142.114208 
L 205.007856 142.687716 
L 205.041537 143.262662 
L 205.056234 143.838445 
L 205.052118 144.414396 
L 205.029166 144.989897 
L 204.987343 145.564333 
L 204.926615 146.137088 
L 204.847217 146.707577 
L 204.749418 147.275214 
L 204.633351 147.839404 
L 204.499149 148.399548 
L 204.346987 148.95507 
L 204.177321 149.50553 
L 203.99047 150.050425 
L 203.786711 150.589228 
L 203.566323 151.121413 
L 203.329679 151.646556 
L 203.077271 152.164359 
L 202.809476 152.674402 
L 202.52667 153.176265 
L 202.229233 153.669534 
L 201.917631 154.154001 
L 201.592318 154.629424 
L 201.253715 155.095493 
L 200.902249 155.551901 
L 200.902249 155.551901 
L 200.866393 155.596981 
L 200.830422 155.641967 
L 200.794327 155.686854 
L 200.758108 155.731642 
L 200.721768 155.77633 
L 200.685305 155.820919 
L 200.648721 155.865408 
" style="fill:none;stroke:#000000;stroke-linecap:square;stroke-width:3;"/>
   </g>
   <g id="line2d_17">
    <path clip-path="url(#p647ea95eb5)" d="M 86.189454 140.513629 
L 86.177638 140.569999 
L 86.166013 140.626405 
L 86.154581 140.682847 
L 86.14334 140.739325 
L 86.132291 140.795839 
L 86.121434 140.85239 
L 86.110769 140.908976 
L 86.100295 140.965599 
L 86.090013 141.022257 
L 86.079923 141.078952 
L 86.070025 141.135683 
L 86.060318 141.19245 
L 86.050803 141.249253 
L 86.04148 141.306092 
L 86.03235 141.362963 
L 86.023414 141.419864 
L 86.014671 141.476796 
L 86.006122 141.533758 
L 85.997767 141.590748 
L 85.989607 141.647766 
L 85.981629 141.704811 
L 85.981629 141.704811 
L 85.912801 142.276033 
L 85.863567 142.849157 
L 85.833934 143.424134 
L 85.824 144 
L 85.824 144 
L 85.833934 144.575866 
L 85.863567 145.150843 
L 85.912801 145.723967 
L 85.981629 146.295189 
L 85.981629 146.295189 
L 85.989607 146.352234 
L 85.997767 146.409252 
L 86.006122 146.466242 
L 86.014671 146.523204 
L 86.023414 146.580136 
L 86.03235 146.637037 
L 86.04148 146.693908 
L 86.050803 146.750747 
L 86.060318 146.80755 
L 86.070025 146.864317 
L 86.079923 146.921048 
L 86.090013 146.977743 
L 86.100295 147.034401 
L 86.110769 147.091024 
L 86.121434 147.14761 
L 86.132291 147.204161 
L 86.14334 147.260675 
L 86.154581 147.317153 
L 86.166013 147.373595 
L 86.177638 147.430001 
L 86.189454 147.486371 
" style="fill:none;stroke:#000000;stroke-linecap:square;stroke-width:3;"/>
   </g>
   <g id="line2d_18">
    <path clip-path="url(#p647ea95eb5)" d="M 201.810546 140.513629 
L 201.822362 140.569999 
L 201.833987 140.626405 
L 201.845419 140.682847 
L 201.85666 140.739325 
L 201.867709 140.795839 
L 201.878566 140.85239 
L 201.889231 140.908976 
L 201.899705 140.965599 
L 201.909987 141.022257 
L 201.920077 141.078952 
L 201.929975 141.135683 
L 201.939682 141.19245 
L 201.949197 141.249253 
L 201.95852 141.306092 
L 201.96765 141.362963 
L 201.976586 141.419864 
L 201.985329 141.476796 
L 201.993878 141.533758 
L 202.002233 141.590748 
L 202.010393 141.647766 
L 202.018371 141.704811 
L 202.018371 141.704811 
L 202.087199 142.276033 
L 202.136433 142.849157 
L 202.166066 143.424134 
L 202.176 144 
L 202.176 144 
L 202.166066 144.575866 
L 202.136433 145.150843 
L 202.087199 145.723967 
L 202.018371 146.295189 
L 202.018371 146.295189 
L 202.010393 146.352234 
L 202.002233 146.409252 
L 201.993878 146.466242 
L 201.985329 146.523204 
L 201.976586 146.580136 
L 201.96765 146.637037 
L 201.95852 146.693908 
L 201.949197 146.750747 
L 201.939682 146.80755 
L 201.929975 146.864317 
L 201.920077 146.921048 
L 201.909987 146.977743 
L 201.899705 147.034401 
L 201.889231 147.091024 
L 201.878566 147.14761 
L 201.867709 147.204161 
L 201.85666 147.260675 
L 201.845419 147.317153 
L 201.833987 147.373595 
L 201.822362 147.430001 
L 201.810546 147.486371 
" style="fill:none;stroke:#000000;stroke-linecap:square;stroke-width:3;"/>
   </g>
   <g id="line2d_19">
    <path clip-path="url(#p647ea95eb5)" d="M 87.351279 132.134592 
L 87.314695 132.179081 
L 87.278232 132.22367 
L 87.241892 132.268358 
L 87.205673 132.313146 
L 87.169578 132.358033 
L 87.133607 132.403019 
L 87.097751 132.448099 
L 87.097751 132.448099 
L 86.746285 132.904507 
L 86.407682 133.370576 
L 86.082369 133.845999 
L 85.770767 134.330466 
L 85.47333 134.823735 
L 85.190524 135.325598 
L 84.922729 135.835641 
L 84.670321 136.353444 
L 84.433677 136.878587 
L 84.213289 137.410772 
L 84.00953 137.949575 
L 83.822679 138.49447 
L 83.653013 139.04493 
L 83.500851 139.600452 
L 83.366649 140.160596 
L 83.250582 140.724786 
L 83.152783 141.292423 
L 83.073385 141.862912 
L 83.012657 142.435667 
L 82.970834 143.010103 
L 82.947882 143.585604 
L 82.943766 144.161555 
L 82.958463 144.737338 
L 82.992144 145.312284 
L 83.04472 145.885792 
L 83.115996 146.457288 
L 83.205776 147.026197 
L 83.313928 147.591902 
L 83.440403 148.15373 
L 83.584887 148.711186 
L 83.747047 149.263788 
L 83.926547 149.811053 
L 84.123128 150.352393 
L 84.33647 150.887303 
L 84.56617 151.415401 
L 84.811826 151.93631 
L 85.07298 152.449598 
L 85.348891 152.954568 
L 85.639429 153.451097 
L 85.944593 153.939183 
L 86.263894 154.418466 
L 86.596701 154.888494 
L 86.941836 155.349575 
L 86.941836 155.349575 
L 86.941836 155.349575 
L 86.977136 155.39509 
L 87.012553 155.440513 
L 87.048096 155.485839 
L 87.083764 155.531066 
L 87.119556 155.576195 
L 87.155472 155.621226 
L 87.191512 155.666157 
" style="fill:none;stroke:#000000;stroke-linecap:square;stroke-width:3;"/>
   </g>
   <g id="line2d_20">
    <path clip-path="url(#p647ea95eb5)" d="M 200.648721 132.134592 
L 200.685305 132.179081 
L 200.721768 132.22367 
L 200.758108 132.268358 
L 200.794327 132.313146 
L 200.830422 132.358033 
L 200.866393 132.403019 
L 200.902249 132.448099 
L 200.902249 132.448099 
L 201.253715 132.904507 
L 201.592318 133.370576 
L 201.917631 133.845999 
L 202.229233 134.330466 
L 202.52667 134.823735 
L 202.809476 135.325598 
L 203.077271 135.835641 
L 203.329679 136.353444 
L 203.566323 136.878587 
L 203.786711 137.410772 
L 203.99047 137.949575 
L 204.177321 138.49447 
L 204.346987 139.04493 
L 204.499149 139.600452 
L 204.633351 140.160596 
L 204.749418 140.724786 
L 204.847217 141.292423 
L 204.926615 141.862912 
L 204.987343 142.435667 
L 205.029166 143.010103 
L 205.052118 143.585604 
L 205.056234 144.161555 
L 205.041537 144.737338 
L 205.007856 145.312284 
L 204.95528 145.885792 
L 204.884004 146.457288 
L 204.794224 147.026197 
L 204.686072 147.591902 
L 204.559597 148.15373 
L 204.415113 148.711186 
L 204.252953 149.263788 
L 204.073453 149.811053 
L 203.876872 150.352393 
L 203.66353 150.887303 
L 203.43383 151.415401 
L 203.188174 151.93631 
L 202.92702 152.449598 
L 202.651109 152.954568 
L 202.360571 153.451097 
L 202.055407 153.939183 
L 201.736106 154.418466 
L 201.403299 154.888494 
L 201.058164 155.349575 
L 201.058164 155.349575 
L 201.058164 155.349575 
L 201.022864 155.39509 
L 200.987447 155.440513 
L 200.951904 155.485839 
L 200.916236 155.531066 
L 200.880444 155.576195 
L 200.844528 155.621226 
L 200.808488 155.666157 
" style="fill:none;stroke:#000000;stroke-linecap:square;stroke-width:3;"/>
   </g>
   <g id="line2d_21">
    <path clip-path="url(#p647ea95eb5)" d="M 90.770605 121.543911 
L 88.732526 122.340797 
L 86.140052 123.593693 
L 83.673647 125.079527 
L 81.810949 126.435146 
L 80.064298 127.937229 
L 78.452444 129.583419 
L 76.995836 131.368008 
L 75.715702 133.283261 
L 74.634312 135.317182 
L 73.772518 137.453069 
L 73.150353 139.670627 
L 72.782338 141.943734 
L 72.678116 144.244064 
L 72.841129 146.540536 
L 73.265701 148.803387 
L 73.941605 151.004208 
L 74.851699 153.118888 
L 75.976413 155.128104 
L 77.294678 157.015772 
L 78.784783 158.771383 
L 80.425711 160.387197 
L 82.197474 161.858266 
L 84.082157 163.182152 
L 86.571123 164.628111 
L 89.18023 165.841863 
L 90.631059 166.401459 
L 90.631059 166.401459 
" style="fill:none;stroke:#000000;stroke-linecap:square;stroke-width:3;"/>
   </g>
   <g id="line2d_22">
    <path clip-path="url(#p647ea95eb5)" d="M 197.229395 121.543911 
L 199.267474 122.340797 
L 201.859948 123.593693 
L 204.326353 125.079527 
L 206.189051 126.435146 
L 207.935702 127.937229 
L 209.547556 129.583419 
L 211.004164 131.368008 
L 212.284298 133.283261 
L 213.365688 135.317182 
L 214.227482 137.453069 
L 214.849647 139.670627 
L 215.217662 141.943734 
L 215.321884 144.244064 
L 215.158871 146.540536 
L 214.734299 148.803387 
L 214.058395 151.004208 
L 213.148301 153.118888 
L 212.023587 155.128104 
L 210.705322 157.015772 
L 209.215217 158.771383 
L 207.574289 160.387197 
L 205.802526 161.858266 
L 203.917843 163.182152 
L 201.428877 164.628111 
L 198.81977 165.841863 
L 197.368941 166.401459 
L 197.368941 166.401459 
" style="fill:none;stroke:#000000;stroke-linecap:square;stroke-width:3;"/>
   </g>
   <g id="line2d_23">
    <path clip-path="url(#p647ea95eb5)" d="M 96.06298 111.726615 
L 92.616057 111.486223 
L 89.160912 111.454229 
L 85.70986 111.628873 
L 82.275212 112.008267 
L 78.869171 112.591338 
L 75.50418 113.377438 
L 72.192954 114.366458 
L 68.949728 115.559306 
L 65.789342 116.957389 
L 62.729763 118.563478 
L 59.790983 120.381121 
L 57.451808 122.060719 
L 55.230301 123.893117 
L 53.147007 125.881393 
L 51.226254 128.027105 
L 49.497311 130.329944 
L 48.275407 132.283169 
L 47.218469 134.330576 
L 46.347106 136.463018 
L 45.682207 138.66869 
L 45.241738 140.929279 
L 45.038546 143.223265 
L 45.080686 145.52504 
L 45.364452 147.808984 
L 45.882984 150.048773 
L 46.618034 152.22966 
L 47.550269 154.332947 
L 48.660613 156.347664 
L 50.268915 158.733783 
L 52.086133 160.963755 
L 54.082661 163.037038 
L 56.228727 164.953699 
L 58.5044 166.716373 
L 61.37407 168.633337 
L 64.375568 170.336971 
L 67.490346 171.83006 
L 70.696141 173.117144 
L 73.976453 174.200042 
L 77.317831 175.079128 
L 80.706516 175.755158 
L 84.129496 176.227989 
L 87.574576 176.496656 
L 91.028863 176.559571 
L 94.480331 176.415064 
L 96.02977 176.282247 
L 96.02977 176.282247 
" style="fill:none;stroke:#000000;stroke-linecap:square;stroke-width:3;"/>
   </g>
   <g id="line2d_24">
    <path clip-path="url(#p647ea95eb5)" d="M 191.93702 111.726615 
L 195.383943 111.486223 
L 198.839088 111.454229 
L 202.29014 111.628873 
L 205.724788 112.008267 
L 209.130829 112.591338 
L 212.49582 113.377438 
L 215.807046 114.366458 
L 219.050272 115.559306 
L 222.210658 116.957389 
L 225.270237 118.563478 
L 228.209017 120.381121 
L 230.548192 122.060719 
L 232.769699 123.893117 
L 234.852993 125.881393 
L 236.773746 128.027105 
L 238.502689 130.329944 
L 239.724593 132.283169 
L 240.781531 134.330576 
L 241.652894 136.463018 
L 242.317793 138.66869 
L 242.758262 140.929279 
L 242.961454 143.223265 
L 242.919314 145.52504 
L 242.635548 147.808984 
L 242.117016 150.048773 
L 241.381966 152.22966 
L 240.449731 154.332947 
L 239.339387 156.347664 
L 237.731085 158.733783 
L 235.913867 160.963755 
L 233.917339 163.037038 
L 231.771273 164.953699 
L 229.4956 166.716373 
L 226.62593 168.633337 
L 223.624432 170.336971 
L 220.509654 171.83006 
L 217.303859 173.117144 
L 214.023547 174.200042 
L 210.682169 175.079128 
L 207.293484 175.755158 
L 203.870504 176.227989 
L 200.425424 176.496656 
L 196.971137 176.559571 
L 193.519669 176.415064 
L 191.97023 176.282247 
L 191.97023 176.282247 
" style="fill:none;stroke:#000000;stroke-linecap:square;stroke-width:3;"/>
   </g>
   <g id="line2d_25">
    <path clip-path="url(#p647ea95eb5)" d="M 17.180675 210.006574 
L 20.535839 208.346903 
L 24.231336 206.739134 
L 28.541983 205.114187 
L 32.925012 203.698541 
L 37.921012 202.319283 
L 43.526191 200.998424 
L 50.863174 199.505734 
L 73.476455 195.093466 
L 80.192158 193.456794 
L 85.733255 191.881966 
L 90.659962 190.268625 
L 95.51229 188.444406 
L 99.745892 186.62768 
L 103.223398 184.955151 
L 103.223398 184.955151 
" style="fill:none;stroke:#1f77b4;stroke-linecap:square;stroke-width:3;"/>
   </g>
   <g id="line2d_26">
    <path clip-path="url(#p647ea95eb5)" d="M 270.819325 210.006574 
L 267.464161 208.346903 
L 263.768664 206.739134 
L 259.458017 205.114187 
L 255.074988 203.698541 
L 250.078988 202.319283 
L 244.473809 200.998424 
L 237.136826 199.505734 
L 214.523545 195.093466 
L 207.807842 193.456794 
L 202.266745 191.881966 
L 197.340038 190.268625 
L 192.48771 188.444406 
L 188.254108 186.62768 
L 184.776602 184.955151 
L 184.776602 184.955151 
" style="fill:none;stroke:#1f77b4;stroke-linecap:square;stroke-width:3;"/>
   </g>
   <g id="line2d_27">
    <path clip-path="url(#p647ea95eb5)" d="M 46.283038 247.627554 
L 50.229201 243.592058 
L 54.809191 239.21588 
L 59.96266 234.610983 
L 65.697886 229.798682 
L 72.459557 224.421287 
L 83.440026 216.023101 
L 93.923494 207.923225 
L 100.176108 202.830623 
L 105.399589 198.303941 
L 110.036079 193.986662 
L 112.045285 192.004588 
L 112.045285 192.004588 
" style="fill:none;stroke:#1f77b4;stroke-linecap:square;stroke-width:3;"/>
   </g>
   <g id="line2d_28">
    <path clip-path="url(#p647ea95eb5)" d="M 241.716962 247.627554 
L 237.770799 243.592058 
L 233.190809 239.21588 
L 228.03734 234.610983 
L 222.302114 229.798682 
L 215.540443 224.421287 
L 204.559974 216.023101 
L 194.076506 207.923225 
L 187.823892 202.830623 
L 182.600411 198.303941 
L 177.963921 193.986662 
L 175.954715 192.004588 
L 175.954715 192.004588 
" style="fill:none;stroke:#1f77b4;stroke-linecap:square;stroke-width:3;"/>
   </g>
   <g id="line2d_29">
    <path clip-path="url(#p647ea95eb5)" d="M 77.193565 270.868906 
L 81.2191 263.420119 
L 85.515661 255.92467 
L 90.581122 247.545257 
L 96.735416 237.807434 
L 115.96755 207.717752 
L 120.333685 200.262551 
L 121.82022 197.59617 
L 121.82022 197.59617 
" style="fill:none;stroke:#1f77b4;stroke-linecap:square;stroke-width:3;"/>
   </g>
   <g id="line2d_30">
    <path clip-path="url(#p647ea95eb5)" d="M 210.806435 270.868906 
L 206.7809 263.420119 
L 202.484339 255.92467 
L 197.418878 247.545257 
L 191.264584 237.807434 
L 172.03245 207.717752 
L 167.666315 200.262551 
L 166.17978 197.59617 
L 166.17978 197.59617 
" style="fill:none;stroke:#1f77b4;stroke-linecap:square;stroke-width:3;"/>
   </g>
   <g id="line2d_31">
    <path clip-path="url(#p647ea95eb5)" d="M 111.031458 280.890564 
L 114.060615 268.823644 
L 117.782184 254.913116 
L 123.078681 236.059034 
L 129.91308 211.654052 
L 132.691902 200.890416 
L 132.691902 200.890416 
" style="fill:none;stroke:#1f77b4;stroke-linecap:square;stroke-width:3;"/>
   </g>
   <g id="line2d_32">
    <path clip-path="url(#p647ea95eb5)" d="M 176.968542 280.890564 
L 173.939385 268.823644 
L 170.217816 254.913116 
L 164.921319 236.059034 
L 158.08692 211.654052 
L 155.308098 200.890416 
L 155.308098 200.890416 
" style="fill:none;stroke:#1f77b4;stroke-linecap:square;stroke-width:3;"/>
   </g>
   <g id="line2d_33">
    <path clip-path="url(#p647ea95eb5)" d="M 144 246.0096 
L 144 202.0032 
L 144 202.0032 
" style="fill:none;stroke:#1f77b4;stroke-linecap:square;stroke-width:3;"/>
   </g>
   <g id="line2d_34">
    <path clip-path="url(#p647ea95eb5)" d="M 144 246.0096 
L 144 202.0032 
L 144 202.0032 
" style="fill:none;stroke:#1f77b4;stroke-linecap:square;stroke-width:3;"/>
   </g>
   <g id="patch_2">
    <path clip-path="url(#p647ea95eb5)" d="M 144 201.6 
C 159.275699 201.6 173.927801 195.530901 184.729351 184.729351 
C 195.530901 173.927801 201.6 159.275699 201.6 144 
C 201.6 128.724301 195.530901 114.072199 184.729351 103.270649 
C 173.927801 92.469099 159.275699 86.4 144 86.4 
C 128.724301 86.4 114.072199 92.469099 103.270649 103.270649 
C 92.469099 114.072199 86.4 128.724301 86.4 144 
C 86.4 159.275699 92.469099 173.927801 103.270649 184.729351 
C 114.072199 195.530901 128.724301 201.6 144 201.6 
z
" style="fill:none;stroke:#000000;stroke-linejoin:miter;stroke-width:4;"/>
   </g>
  </g>
 </g>
 <defs>
  <clipPath id="p647ea95eb5">
   <rect height="288" width="288" x="0" y="0"/>
  </clipPath>
 </defs>
</svg>
