<?xml version="1.0" encoding="utf-8" standalone="no"?>
<!DOCTYPE svg PUBLIC "-//W3C//DTD SVG 1.1//EN"
  "http://www.w3.org/Graphics/SVG/1.1/DTD/svg11.dtd">
<!-- Created with matplotlib (https://matplotlib.org/) -->
<svg height="576pt" version="1.1" viewBox="0 0 576 576" width="576pt" xmlns="http://www.w3.org/2000/svg" xmlns:xlink="http://www.w3.org/1999/xlink">
 <defs>
  <style type="text/css">
*{stroke-linecap:butt;stroke-linejoin:round;}
  </style>
 </defs>
 <g id="figure_1">
  <g id="patch_1">
   <path d="M 0 576 
L 576 576 
L 576 0 
L 0 0 
z
" style="fill:#ffffff;"/>
  </g>
  <g id="axes_1">
   <g id="patch_2">
    <path clip-path="url(#p198597c99f)" d="M 288 403.2 
C 318.551397 403.2 347.855601 391.061801 369.458701 369.458701 
C 391.061801 347.855601 403.2 318.551397 403.2 288 
C 403.2 257.448603 391.061801 228.144399 369.458701 206.541299 
C 347.855601 184.938199 318.551397 172.8 288 172.8 
C 257.448603 172.8 228.144399 184.938199 206.541299 206.541299 
C 184.938199 228.144399 172.8 257.448603 172.8 288 
C 172.8 318.551397 184.938199 347.855601 206.541299 369.458701 
C 228.144399 391.061801 257.448603 403.2 288 403.2 
z
" style="fill:none;stroke:#000000;stroke-linejoin:miter;"/>
   </g>
   <g id="line2d_1">
    <path clip-path="url(#p198597c99f)" d="M 288 171.9936 
L 288 83.9808 
L 288 83.9808 
" style="fill:none;stroke:#d62728;stroke-linecap:square;stroke-width:1.5;"/>
   </g>
   <g id="line2d_2">
    <path clip-path="url(#p198597c99f)" d="M 288 171.9936 
L 288 83.9808 
L 288 83.9808 
" style="fill:none;stroke:#d62728;stroke-linecap:square;stroke-width:1.5;"/>
   </g>
   <g id="line2d_3">
    <path clip-path="url(#p198597c99f)" d="M 276.623241 172.552752 
L 273.559232 133.158221 
L 271.448683 103.280794 
L 269.644422 74.537495 
L 268.13638 46.930727 
L 266.793307 18.162118 
L 266.289985 5.961292 
L 266.289985 5.961292 
" style="fill:none;stroke:#d62728;stroke-linecap:square;stroke-width:1.5;"/>
   </g>
   <g id="line2d_4">
    <path clip-path="url(#p198597c99f)" d="M 299.376759 172.552752 
L 302.440768 133.158221 
L 304.551317 103.280794 
L 306.355578 74.537495 
L 307.86362 46.930727 
L 309.206693 18.162118 
L 309.710015 5.961292 
L 309.710015 5.961292 
" style="fill:none;stroke:#d62728;stroke-linecap:square;stroke-width:1.5;"/>
   </g>
   <g id="line2d_5">
    <path clip-path="url(#p198597c99f)" d="M 265.383803 174.219168 
L 261.889443 160.487366 
L 257.411549 143.797784 
L 251.200156 121.610739 
L 235.259383 65.062878 
L 229.576864 43.925633 
L 224.706654 24.957369 
L 222.062917 14.218872 
L 222.062917 14.218872 
" style="fill:none;stroke:#d62728;stroke-linecap:square;stroke-width:1.5;"/>
   </g>
   <g id="line2d_6">
    <path clip-path="url(#p198597c99f)" d="M 310.616197 174.219168 
L 314.110557 160.487366 
L 318.588451 143.797784 
L 324.799844 121.610739 
L 340.740617 65.062878 
L 346.423136 43.925633 
L 351.293346 24.957369 
L 353.937083 14.218872 
L 353.937083 14.218872 
" style="fill:none;stroke:#d62728;stroke-linecap:square;stroke-width:1.5;"/>
   </g>
   <g id="line2d_7">
    <path clip-path="url(#p198597c99f)" d="M 254.350055 176.98018 
L 249.952779 165.959669 
L 244.625388 153.203628 
L 237.740012 137.354387 
L 228.332164 116.322353 
L 211.846468 79.527387 
L 204.521309 62.61483 
L 198.093211 47.197493 
L 192.448382 33.077794 
L 187.508835 20.16658 
L 187.508835 20.16658 
" style="fill:none;stroke:#d62728;stroke-linecap:square;stroke-width:1.5;"/>
   </g>
   <g id="line2d_8">
    <path clip-path="url(#p198597c99f)" d="M 321.649945 176.98018 
L 326.047221 165.959669 
L 331.374612 153.203628 
L 338.259988 137.354387 
L 347.667836 116.322353 
L 364.153532 79.527387 
L 371.478691 62.61483 
L 377.906789 47.197493 
L 383.551618 33.077794 
L 388.491165 20.16658 
L 388.491165 20.16658 
" style="fill:none;stroke:#d62728;stroke-linecap:square;stroke-width:1.5;"/>
   </g>
   <g id="line2d_9">
    <path clip-path="url(#p198597c99f)" d="M 243.640441 180.807659 
L 238.955878 172.472471 
L 233.123257 162.538536 
L 226.514454 151.726322 
L 217.897447 138.093204 
L 204.748158 117.786286 
L 189.126452 93.591506 
L 179.951942 78.949047 
L 172.791614 67.124538 
L 166.403211 56.181548 
L 160.04338 44.823536 
L 154.38713 34.262188 
L 154.38713 34.262188 
" style="fill:none;stroke:#d62728;stroke-linecap:square;stroke-width:1.5;"/>
   </g>
   <g id="line2d_10">
    <path clip-path="url(#p198597c99f)" d="M 332.359559 180.807659 
L 337.044122 172.472471 
L 342.876743 162.538536 
L 349.485546 151.726322 
L 358.102553 138.093204 
L 371.251842 117.786286 
L 386.873548 93.591506 
L 396.048058 78.949047 
L 403.208386 67.124538 
L 409.596789 56.181548 
L 415.95662 44.823536 
L 421.61287 34.262188 
L 421.61287 34.262188 
" style="fill:none;stroke:#d62728;stroke-linecap:square;stroke-width:1.5;"/>
   </g>
   <g id="line2d_11">
    <path clip-path="url(#p198597c99f)" d="M 233.770464 186.218871 
L 228.262859 178.97418 
L 221.79693 170.870182 
L 215.159867 162.90484 
L 206.869552 153.320887 
L 196.894689 142.14993 
L 178.267143 121.717995 
L 164.380526 106.319056 
L 155.276372 95.917589 
L 147.095447 86.241121 
L 139.828376 77.30409 
L 133.450604 69.130403 
L 127.241001 60.82892 
L 122.537772 54.279133 
L 122.537772 54.279133 
" style="fill:none;stroke:#d62728;stroke-linecap:square;stroke-width:1.5;"/>
   </g>
   <g id="line2d_12">
    <path clip-path="url(#p198597c99f)" d="M 342.229536 186.218871 
L 347.737141 178.97418 
L 354.20307 170.870182 
L 360.840133 162.90484 
L 369.130448 153.320887 
L 379.105311 142.14993 
L 397.732857 121.717995 
L 411.619474 106.319056 
L 420.723628 95.917589 
L 428.904553 86.241121 
L 436.171624 77.30409 
L 442.549396 69.130403 
L 448.758999 60.82892 
L 453.462228 54.279133 
L 453.462228 54.279133 
" style="fill:none;stroke:#d62728;stroke-linecap:square;stroke-width:1.5;"/>
   </g>
   <g id="line2d_13">
    <path clip-path="url(#p198597c99f)" d="M 224.09057 191.990824 
L 218.410707 186.430492 
L 211.655248 180.162913 
L 204.741162 174.069518 
L 196.809027 167.392514 
L 187.846988 160.153551 
L 176.948851 151.64821 
L 157.708477 136.982523 
L 142.195481 125.030501 
L 132.288941 117.13015 
L 123.42454 109.774932 
L 115.594169 102.98202 
L 108.773564 96.785263 
L 102.10127 90.430668 
L 95.514381 83.823002 
L 92.566076 80.744892 
L 92.566076 80.744892 
" style="fill:none;stroke:#d62728;stroke-linecap:square;stroke-width:1.5;"/>
   </g>
   <g id="line2d_14">
    <path clip-path="url(#p198597c99f)" d="M 351.90943 191.990824 
L 357.589293 186.430492 
L 364.344752 180.162913 
L 371.258838 174.069518 
L 379.190973 167.392514 
L 388.153012 160.153551 
L 399.051149 151.64821 
L 418.291523 136.982523 
L 433.804519 125.030501 
L 443.711059 117.13015 
L 452.57546 109.774932 
L 460.405831 102.98202 
L 467.226436 96.785263 
L 473.89873 90.430668 
L 480.485619 83.823002 
L 483.433924 80.744892 
L 483.433924 80.744892 
" style="fill:none;stroke:#d62728;stroke-linecap:square;stroke-width:1.5;"/>
   </g>
   <g id="line2d_15">
    <path clip-path="url(#p198597c99f)" d="M 214.930561 198.60327 
L 209.491902 194.722523 
L 202.792253 190.236099 
L 195.961732 185.950476 
L 189.019126 181.846706 
L 180.97167 177.35435 
L 171.801961 172.513147 
L 161.506919 167.342344 
L 148.017242 160.835553 
L 118.924515 146.906357 
L 108.647728 141.702409 
L 99.507391 136.812049 
L 91.496904 132.25685 
L 84.596275 128.087705 
L 77.813963 123.727187 
L 71.165824 119.165827 
L 64.759441 114.462555 
L 61.569906 111.996228 
L 61.569906 111.996228 
" style="fill:none;stroke:#d62728;stroke-linecap:square;stroke-width:1.5;"/>
   </g>
   <g id="line2d_16">
    <path clip-path="url(#p198597c99f)" d="M 361.069439 198.60327 
L 366.508098 194.722523 
L 373.207747 190.236099 
L 380.038268 185.950476 
L 386.980874 181.846706 
L 395.02833 177.35435 
L 404.198039 172.513147 
L 414.493081 167.342344 
L 427.982758 160.835553 
L 457.075485 146.906357 
L 467.352272 141.702409 
L 476.492609 136.812049 
L 484.503096 132.25685 
L 491.403725 128.087705 
L 498.186037 123.727187 
L 504.834176 119.165827 
L 511.240559 114.462555 
L 514.430094 111.996228 
L 514.430094 111.996228 
" style="fill:none;stroke:#d62728;stroke-linecap:square;stroke-width:1.5;"/>
   </g>
   <g id="line2d_17">
    <path clip-path="url(#p198597c99f)" d="M 206.446795 206.089698 
L 201.582086 203.713427 
L 195.278235 200.880601 
L 188.882946 198.261736 
L 182.406296 195.846519 
L 175.861655 193.620853 
L 168.154993 191.246055 
L 160.384315 189.086411 
L 151.44322 186.850578 
L 141.325428 184.581313 
L 130.034541 182.292418 
L 113.049834 179.107681 
L 94.944203 175.65766 
L 84.803153 173.504381 
L 75.842025 171.361435 
L 68.060185 169.252137 
L 61.451099 167.236161 
L 54.913543 165.000184 
L 48.462672 162.521732 
L 43.167094 160.262023 
L 37.335589 157.507927 
L 34.36135 155.986852 
L 34.36135 155.986852 
" style="fill:none;stroke:#d62728;stroke-linecap:square;stroke-width:1.5;"/>
   </g>
   <g id="line2d_18">
    <path clip-path="url(#p198597c99f)" d="M 369.553205 206.089698 
L 374.417914 203.713427 
L 380.721765 200.880601 
L 387.117054 198.261736 
L 393.593704 195.846519 
L 400.138345 193.620853 
L 407.845007 191.246055 
L 415.615685 189.086411 
L 424.55678 186.850578 
L 434.674572 184.581313 
L 445.965459 182.292418 
L 462.950166 179.107681 
L 481.055797 175.65766 
L 491.196847 173.504381 
L 500.157975 171.361435 
L 507.939815 169.252137 
L 514.548901 167.236161 
L 521.086457 165.000184 
L 527.537328 162.521732 
L 532.832906 160.262023 
L 538.664411 157.507927 
L 541.63865 155.986852 
L 541.63865 155.986852 
" style="fill:none;stroke:#d62728;stroke-linecap:square;stroke-width:1.5;"/>
   </g>
   <g id="line2d_19">
    <path clip-path="url(#p198597c99f)" d="M 198.831622 214.416967 
L 193.618554 212.95623 
L 188.018772 211.610974 
L 182.374255 210.474759 
L 176.690143 209.544038 
L 170.97653 208.811668 
L 165.241728 208.271762 
L 158.341291 207.868709 
L 151.430288 207.721644 
L 144.518947 207.81889 
L 137.614171 208.14772 
L 130.723831 208.695628 
L 123.852369 209.448228 
L 115.866031 210.566048 
L 107.91627 211.917436 
L 100.003968 213.473752 
L 91.005597 215.464013 
L 79.811705 218.183914 
L 50.755661 225.410715 
L 43.988743 226.804335 
L 38.314713 227.774083 
L 32.607561 228.50016 
L 28.016186 228.862344 
L 23.413672 228.994193 
L 18.814208 228.860477 
L 15.375147 228.56323 
L 11.15984 227.941572 
L 7.890356 227.256833 
L 7.890356 227.256833 
" style="fill:none;stroke:#d62728;stroke-linecap:square;stroke-width:1.5;"/>
   </g>
   <g id="line2d_20">
    <path clip-path="url(#p198597c99f)" d="M 377.168378 214.416967 
L 382.381446 212.95623 
L 387.981228 211.610974 
L 393.625745 210.474759 
L 399.309857 209.544038 
L 405.02347 208.811668 
L 410.758272 208.271762 
L 417.658709 207.868709 
L 424.569712 207.721644 
L 431.481053 207.81889 
L 438.385829 208.14772 
L 445.276169 208.695628 
L 452.147631 209.448228 
L 460.133969 210.566048 
L 468.08373 211.917436 
L 475.996032 213.473752 
L 484.994403 215.464013 
L 496.188295 218.183914 
L 525.244339 225.410715 
L 532.011257 226.804335 
L 537.685287 227.774083 
L 543.392439 228.50016 
L 547.983814 228.862344 
L 552.586328 228.994193 
L 557.185792 228.860477 
L 560.624853 228.56323 
L 564.84016 227.941572 
L 568.109644 227.256833 
L 568.109644 227.256833 
" style="fill:none;stroke:#d62728;stroke-linecap:square;stroke-width:1.5;"/>
   </g>
   <g id="line2d_21">
    <path clip-path="url(#p198597c99f)" d="M 192.05954 223.435507 
L 187.811275 223.092784 
L 183.208875 222.90018 
L 178.603142 222.892059 
L 173.998762 223.06777 
L 169.404943 223.426045 
L 164.828965 223.965922 
L 160.278048 224.686865 
L 155.759423 225.588272 
L 151.280698 226.669924 
L 146.85026 227.932555 
L 142.476097 229.376407 
L 138.166177 231.001702 
L 133.928471 232.808663 
L 129.774683 234.799279 
L 125.718983 236.976699 
L 121.772281 239.342538 
L 117.945485 241.898406 
L 114.249635 244.645935 
L 110.707213 247.58862 
L 107.341388 250.730069 
L 104.172265 254.072491 
L 101.944748 256.710845 
L 99.859116 259.46206 
L 97.927641 262.325981 
L 96.16871 265.296719 
L 94.599552 268.369471 
L 93.236068 271.54068 
L 92.094394 274.799883 
L 91.19091 278.129246 
L 90.541793 281.517095 
L 90.161372 284.94992 
L 90.052109 288.402121 
L 90.220158 291.85264 
L 90.659654 295.279957 
L 91.364413 298.662621 
L 92.321732 301.983467 
L 93.516373 305.226482 
L 94.932264 308.379388 
L 96.550815 311.433662 
L 98.35495 314.381514 
L 100.327619 317.22016 
L 102.452508 319.945791 
L 104.71565 322.55859 
L 107.924425 325.865476 
L 111.328424 328.971459 
L 114.903616 331.878563 
L 118.629144 334.590106 
L 122.487812 337.108851 
L 126.463826 339.437549 
L 130.543865 341.5789 
L 134.716156 343.534936 
L 138.969916 345.307395 
L 143.294581 346.897855 
L 147.682035 348.306865 
L 152.123198 349.535374 
L 156.610261 350.5835 
L 161.135762 351.451141 
L 165.691979 352.138281 
L 170.271891 352.644163 
L 174.86821 352.968304 
L 179.473635 353.109677 
L 184.080876 353.06707 
L 188.682633 352.839474 
L 192.12596 352.54677 
L 192.12596 352.54677 
" style="fill:none;stroke:#000000;stroke-linecap:square;stroke-width:1.5;"/>
   </g>
   <g id="line2d_22">
    <path clip-path="url(#p198597c99f)" d="M 383.94046 223.435507 
L 388.188725 223.092784 
L 392.791125 222.90018 
L 397.396858 222.892059 
L 402.001238 223.06777 
L 406.595057 223.426045 
L 411.171035 223.965922 
L 415.721952 224.686865 
L 420.240577 225.588272 
L 424.719302 226.669924 
L 429.14974 227.932555 
L 433.523903 229.376407 
L 437.833823 231.001702 
L 442.071529 232.808663 
L 446.225317 234.799279 
L 450.281017 236.976699 
L 454.227719 239.342538 
L 458.054515 241.898406 
L 461.750365 244.645935 
L 465.292787 247.58862 
L 468.658612 250.730069 
L 471.827735 254.072491 
L 474.055252 256.710845 
L 476.140884 259.46206 
L 478.072359 262.325981 
L 479.83129 265.296719 
L 481.400448 268.369471 
L 482.763932 271.54068 
L 483.905606 274.799883 
L 484.80909 278.129246 
L 485.458207 281.517095 
L 485.838628 284.94992 
L 485.947891 288.402121 
L 485.779842 291.85264 
L 485.340346 295.279957 
L 484.635587 298.662621 
L 483.678268 301.983467 
L 482.483627 305.226482 
L 481.067736 308.379388 
L 479.449185 311.433662 
L 477.64505 314.381514 
L 475.672381 317.22016 
L 473.547492 319.945791 
L 471.28435 322.55859 
L 468.075575 325.865476 
L 464.671576 328.971459 
L 461.096384 331.878563 
L 457.370856 334.590106 
L 453.512188 337.108851 
L 449.536174 339.437549 
L 445.456135 341.5789 
L 441.283844 343.534936 
L 437.030084 345.307395 
L 432.705419 346.897855 
L 428.317965 348.306865 
L 423.876802 349.535374 
L 419.389739 350.5835 
L 414.864238 351.451141 
L 410.308021 352.138281 
L 405.728109 352.644163 
L 401.13179 352.968304 
L 396.526365 353.109677 
L 391.919124 353.06707 
L 387.317367 352.839474 
L 383.87404 352.54677 
L 383.87404 352.54677 
" style="fill:none;stroke:#000000;stroke-linecap:square;stroke-width:1.5;"/>
   </g>
   <g id="line2d_23">
    <path clip-path="url(#p198597c99f)" d="M 186.187676 233.058734 
L 181.965157 233.636431 
L 177.440018 234.492644 
L 172.966912 235.591259 
L 168.559697 236.933588 
L 164.234702 238.521192 
L 160.008991 240.355748 
L 155.899944 242.438927 
L 151.928187 244.772102 
L 149.052034 246.686855 
L 146.275464 248.742992 
L 143.609879 250.940295 
L 141.066179 253.278557 
L 138.658422 255.755411 
L 136.400033 258.368925 
L 134.305102 261.116059 
L 132.390578 263.990145 
L 130.672011 266.986272 
L 129.165425 270.094393 
L 127.887124 273.301831 
L 126.852771 276.597595 
L 126.073636 279.9621 
L 125.561655 283.377066 
L 125.326121 286.823757 
L 125.366181 290.277819 
L 125.685599 293.717458 
L 126.279228 297.121663 
L 127.135738 300.469781 
L 128.248163 303.741348 
L 129.599921 306.922831 
L 131.175373 310.000015 
L 132.959841 312.959705 
L 134.93568 315.796927 
L 137.086498 318.503235 
L 139.39706 321.0738 
L 141.852988 323.507266 
L 144.439445 325.799918 
L 147.144709 327.951581 
L 149.956937 329.961944 
L 152.864367 331.83033 
L 156.873884 334.102202 
L 161.014332 336.124206 
L 165.267299 337.898292 
L 169.614308 339.426234 
L 174.040003 340.709181 
L 178.52894 341.748334 
L 183.067304 342.545107 
L 186.151631 342.946554 
L 186.151631 342.946554 
" style="fill:none;stroke:#000000;stroke-linecap:square;stroke-width:1.5;"/>
   </g>
   <g id="line2d_24">
    <path clip-path="url(#p198597c99f)" d="M 389.812324 233.058734 
L 394.034843 233.636431 
L 398.559982 234.492644 
L 403.033088 235.591259 
L 407.440303 236.933588 
L 411.765298 238.521192 
L 415.991009 240.355748 
L 420.100056 242.438927 
L 424.071813 244.772102 
L 426.947966 246.686855 
L 429.724536 248.742992 
L 432.390121 250.940295 
L 434.933821 253.278557 
L 437.341578 255.755411 
L 439.599967 258.368925 
L 441.694898 261.116059 
L 443.609422 263.990145 
L 445.327989 266.986272 
L 446.834575 270.094393 
L 448.112876 273.301831 
L 449.147229 276.597595 
L 449.926364 279.9621 
L 450.438345 283.377066 
L 450.673879 286.823757 
L 450.633819 290.277819 
L 450.314401 293.717458 
L 449.720772 297.121663 
L 448.864262 300.469781 
L 447.751837 303.741348 
L 446.400079 306.922831 
L 444.824627 310.000015 
L 443.040159 312.959705 
L 441.06432 315.796927 
L 438.913502 318.503235 
L 436.60294 321.0738 
L 434.147012 323.507266 
L 431.560555 325.799918 
L 428.855291 327.951581 
L 426.043063 329.961944 
L 423.135633 331.83033 
L 419.126116 334.102202 
L 414.985668 336.124206 
L 410.732701 337.898292 
L 406.385692 339.426234 
L 401.959997 340.709181 
L 397.47106 341.748334 
L 392.932696 342.545107 
L 389.848369 342.946554 
L 389.848369 342.946554 
" style="fill:none;stroke:#000000;stroke-linecap:square;stroke-width:1.5;"/>
   </g>
   <g id="line2d_25">
    <path clip-path="url(#p198597c99f)" d="M 181.262117 243.197082 
L 178.36046 244.316273 
L 175.202531 245.717058 
L 172.125876 247.285006 
L 169.137853 249.020155 
L 166.25368 250.922509 
L 163.486527 252.991545 
L 160.851422 255.225607 
L 158.363284 257.622757 
L 156.039302 260.178482 
L 153.896264 262.888349 
L 151.952826 265.743793 
L 150.227158 268.736553 
L 148.737014 271.852512 
L 147.500031 275.077866 
L 146.531403 278.393225 
L 145.846048 281.77878 
L 145.45277 285.210697 
L 145.358593 288.663769 
L 145.564676 292.112532 
L 146.067622 295.530571 
L 146.861183 298.893559 
L 147.932344 302.178897 
L 149.268624 305.365637 
L 150.851647 308.437922 
L 152.664723 311.379768 
L 154.688567 314.181706 
L 156.904887 316.833162 
L 159.295877 319.329171 
L 161.843855 321.663841 
L 164.532965 323.835231 
L 167.347295 325.840946 
L 170.273567 327.679859 
L 173.298609 329.350926 
L 176.410459 330.85438 
L 180.458664 332.518681 
L 181.541209 332.912178 
L 181.541209 332.912178 
" style="fill:none;stroke:#000000;stroke-linecap:square;stroke-width:1.5;"/>
   </g>
   <g id="line2d_26">
    <path clip-path="url(#p198597c99f)" d="M 394.737883 243.197082 
L 397.63954 244.316273 
L 400.797469 245.717058 
L 403.874124 247.285006 
L 406.862147 249.020155 
L 409.74632 250.922509 
L 412.513473 252.991545 
L 415.148578 255.225607 
L 417.636716 257.622757 
L 419.960698 260.178482 
L 422.103736 262.888349 
L 424.047174 265.743793 
L 425.772842 268.736553 
L 427.262986 271.852512 
L 428.499969 275.077866 
L 429.468597 278.393225 
L 430.153952 281.77878 
L 430.54723 285.210697 
L 430.641407 288.663769 
L 430.435324 292.112532 
L 429.932378 295.530571 
L 429.138817 298.893559 
L 428.067656 302.178897 
L 426.731376 305.365637 
L 425.148353 308.437922 
L 423.335277 311.379768 
L 421.311433 314.181706 
L 419.095113 316.833162 
L 416.704123 319.329171 
L 414.156145 321.663841 
L 411.467035 323.835231 
L 408.652705 325.840946 
L 405.726433 327.679859 
L 402.701391 329.350926 
L 399.589541 330.85438 
L 395.541336 332.518681 
L 394.458791 332.912178 
L 394.458791 332.912178 
" style="fill:none;stroke:#000000;stroke-linecap:square;stroke-width:1.5;"/>
   </g>
   <g id="line2d_27">
    <path clip-path="url(#p198597c99f)" d="M 177.318108 253.761523 
L 177.223383 253.827084 
L 177.128804 253.892852 
L 177.034368 253.958828 
L 176.940078 254.025012 
L 176.845934 254.091404 
L 176.751937 254.158003 
L 176.658078 254.224797 
L 176.658078 254.224797 
L 176.658078 254.224797 
L 175.728757 254.905453 
L 174.814043 255.605554 
L 173.915473 256.326197 
L 173.033919 257.067195 
L 172.1706 257.828281 
L 171.325551 258.609445 
L 170.498774 259.41069 
L 169.690891 260.231821 
L 168.903366 261.072384 
L 168.136955 261.932146 
L 167.392399 262.810878 
L 166.67044 263.708349 
L 165.971839 264.624258 
L 165.297445 265.558 
L 164.64805 266.509168 
L 164.024439 267.477384 
L 163.427394 268.46227 
L 162.857695 269.463421 
L 162.316057 270.479975 
L 161.803214 271.511222 
L 161.31992 272.55657 
L 160.866928 273.615429 
L 160.444989 274.687206 
L 160.054667 275.77095 
L 159.696476 276.865611 
L 159.371052 277.970377 
L 159.07903 279.084433 
L 158.821048 280.206966 
L 158.597541 281.336998 
L 158.408574 282.473243 
L 158.254536 283.614685 
L 158.135832 284.760318 
L 158.052867 285.90914 
L 158.005931 287.060112 
L 157.994614 288.211994 
L 158.018889 289.363657 
L 158.078832 290.514001 
L 158.174519 291.661927 
L 158.306002 292.806337 
L 158.472697 293.946199 
L 158.674135 295.080469 
L 158.910073 296.208079 
L 159.18027 297.327962 
L 159.484482 298.43905 
L 159.822074 299.54048 
L 160.192144 300.631522 
L 160.594154 301.71126 
L 161.027568 302.778777 
L 161.491852 303.833157 
L 161.986343 304.873632 
L 162.510033 305.899851 
L 163.062174 306.911149 
L 163.642043 307.906835 
L 164.248916 308.886216 
L 164.88206 309.848646 
L 165.540652 310.793928 
L 166.22391 311.721664 
L 166.931069 312.631368 
L 167.661363 313.522556 
L 168.414029 314.394745 
L 169.188307 315.247808 
L 169.98344 316.081615 
L 170.798667 316.895874 
L 171.633225 317.690287 
L 172.486354 318.464561 
L 173.35736 319.218545 
L 174.245631 319.952258 
L 175.150472 320.665541 
L 176.071182 321.358232 
L 177.007063 322.030168 
L 177.007063 322.030168 
L 177.101478 322.096174 
L 177.196029 322.161985 
L 177.290723 322.227588 
L 177.385562 322.292984 
L 177.480543 322.358172 
L 177.575666 322.423153 
L 177.67093 322.487927 
" style="fill:none;stroke:#000000;stroke-linecap:square;stroke-width:1.5;"/>
   </g>
   <g id="line2d_28">
    <path clip-path="url(#p198597c99f)" d="M 398.681892 253.761523 
L 398.776617 253.827084 
L 398.871196 253.892852 
L 398.965632 253.958828 
L 399.059922 254.025012 
L 399.154066 254.091404 
L 399.248063 254.158003 
L 399.341922 254.224797 
L 399.341922 254.224797 
L 399.341922 254.224797 
L 400.271243 254.905453 
L 401.185957 255.605554 
L 402.084527 256.326197 
L 402.966081 257.067195 
L 403.8294 257.828281 
L 404.674449 258.609445 
L 405.501226 259.41069 
L 406.309109 260.231821 
L 407.096634 261.072384 
L 407.863045 261.932146 
L 408.607601 262.810878 
L 409.32956 263.708349 
L 410.028161 264.624258 
L 410.702555 265.558 
L 411.35195 266.509168 
L 411.975561 267.477384 
L 412.572606 268.46227 
L 413.142305 269.463421 
L 413.683943 270.479975 
L 414.196786 271.511222 
L 414.68008 272.55657 
L 415.133072 273.615429 
L 415.555011 274.687206 
L 415.945333 275.77095 
L 416.303524 276.865611 
L 416.628948 277.970377 
L 416.92097 279.084433 
L 417.178952 280.206966 
L 417.402459 281.336998 
L 417.591426 282.473243 
L 417.745464 283.614685 
L 417.864168 284.760318 
L 417.947133 285.90914 
L 417.994069 287.060112 
L 418.005386 288.211994 
L 417.981111 289.363657 
L 417.921168 290.514001 
L 417.825481 291.661927 
L 417.693998 292.806337 
L 417.527303 293.946199 
L 417.325865 295.080469 
L 417.089927 296.208079 
L 416.81973 297.327962 
L 416.515518 298.43905 
L 416.177926 299.54048 
L 415.807856 300.631522 
L 415.405846 301.71126 
L 414.972432 302.778777 
L 414.508148 303.833157 
L 414.013657 304.873632 
L 413.489967 305.899851 
L 412.937826 306.911149 
L 412.357957 307.906835 
L 411.751084 308.886216 
L 411.11794 309.848646 
L 410.459348 310.793928 
L 409.77609 311.721664 
L 409.068931 312.631368 
L 408.338637 313.522556 
L 407.585971 314.394745 
L 406.811693 315.247808 
L 406.01656 316.081615 
L 405.201333 316.895874 
L 404.366775 317.690287 
L 403.513646 318.464561 
L 402.64264 319.218545 
L 401.754369 319.952258 
L 400.849528 320.665541 
L 399.928818 321.358232 
L 398.992937 322.030168 
L 398.992937 322.030168 
L 398.898522 322.096174 
L 398.803971 322.161985 
L 398.709277 322.227588 
L 398.614438 322.292984 
L 398.519457 322.358172 
L 398.424334 322.423153 
L 398.32907 322.487927 
" style="fill:none;stroke:#000000;stroke-linecap:square;stroke-width:1.5;"/>
   </g>
   <g id="line2d_29">
    <path clip-path="url(#p198597c99f)" d="M 174.383023 264.667685 
L 174.310944 264.757549 
L 174.239113 264.84761 
L 174.167529 264.937868 
L 174.096193 265.028323 
L 174.025107 265.118974 
L 173.954271 265.20982 
L 173.883671 265.300851 
L 173.883671 265.300851 
L 173.883671 265.300851 
L 173.193401 266.223012 
L 172.527788 267.163068 
L 171.889186 268.121634 
L 171.278858 269.097807 
L 170.697783 270.090863 
L 170.145959 271.100804 
L 169.623652 272.12738 
L 169.132341 273.169197 
L 168.67294 274.225395 
L 168.246256 275.295213 
L 167.853095 276.377894 
L 167.494093 277.472424 
L 167.169774 278.577628 
L 166.880806 279.69254 
L 166.627856 280.816196 
L 166.411552 281.947606 
L 166.231992 283.085423 
L 166.08944 284.228415 
L 165.984288 285.375432 
L 165.916926 286.525325 
L 165.887532 287.67689 
L 165.895764 288.828792 
L 165.941668 289.979794 
L 166.025315 291.128666 
L 166.146769 292.274177 
L 166.305566 293.415153 
L 166.501164 294.550428 
L 166.733299 295.678808 
L 167.001702 296.799096 
L 167.306025 297.910139 
L 167.645357 299.011061 
L 168.01906 300.100851 
L 168.426578 301.178457 
L 168.867353 302.242827 
L 169.340641 303.293112 
L 169.845459 304.328717 
L 170.381049 305.348804 
L 170.94666 306.35253 
L 171.541534 307.339068 
L 172.164737 308.308002 
L 172.815365 309.258847 
L 173.492569 310.190987 
L 174.195502 311.103803 
L 174.195502 311.103803 
L 174.267213 311.193961 
L 174.339156 311.283933 
L 174.411346 311.373707 
L 174.483783 311.463283 
L 174.556464 311.55266 
L 174.629389 311.641838 
L 174.702558 311.730817 
" style="fill:none;stroke:#000000;stroke-linecap:square;stroke-width:1.5;"/>
   </g>
   <g id="line2d_30">
    <path clip-path="url(#p198597c99f)" d="M 401.616977 264.667685 
L 401.689056 264.757549 
L 401.760887 264.84761 
L 401.832471 264.937868 
L 401.903807 265.028323 
L 401.974893 265.118974 
L 402.045729 265.20982 
L 402.116329 265.300851 
L 402.116329 265.300851 
L 402.116329 265.300851 
L 402.806599 266.223012 
L 403.472212 267.163068 
L 404.110814 268.121634 
L 404.721142 269.097807 
L 405.302217 270.090863 
L 405.854041 271.100804 
L 406.376348 272.12738 
L 406.867659 273.169197 
L 407.32706 274.225395 
L 407.753744 275.295213 
L 408.146905 276.377894 
L 408.505907 277.472424 
L 408.830226 278.577628 
L 409.119194 279.69254 
L 409.372144 280.816196 
L 409.588448 281.947606 
L 409.768008 283.085423 
L 409.91056 284.228415 
L 410.015712 285.375432 
L 410.083074 286.525325 
L 410.112468 287.67689 
L 410.104236 288.828792 
L 410.058332 289.979794 
L 409.974685 291.128666 
L 409.853231 292.274177 
L 409.694434 293.415153 
L 409.498836 294.550428 
L 409.266701 295.678808 
L 408.998298 296.799096 
L 408.693975 297.910139 
L 408.354643 299.011061 
L 407.98094 300.100851 
L 407.573422 301.178457 
L 407.132647 302.242827 
L 406.659359 303.293112 
L 406.154541 304.328717 
L 405.618951 305.348804 
L 405.05334 306.35253 
L 404.458466 307.339068 
L 403.835263 308.308002 
L 403.184635 309.258847 
L 402.507431 310.190987 
L 401.804498 311.103803 
L 401.804498 311.103803 
L 401.732787 311.193961 
L 401.660844 311.283933 
L 401.588654 311.373707 
L 401.516217 311.463283 
L 401.443536 311.55266 
L 401.370611 311.641838 
L 401.297442 311.730817 
" style="fill:none;stroke:#000000;stroke-linecap:square;stroke-width:1.5;"/>
   </g>
   <g id="line2d_31">
    <path clip-path="url(#p198597c99f)" d="M 173.131691 274.236251 
L 173.086123 274.342049 
L 173.040896 274.447986 
L 172.996011 274.554061 
L 172.951467 274.660274 
L 172.907265 274.766626 
L 172.863405 274.873116 
L 172.819886 274.979744 
L 172.776708 275.086511 
L 172.733872 275.193416 
L 172.691378 275.30046 
L 172.649225 275.407642 
L 172.607413 275.514962 
L 172.565943 275.62242 
L 172.524815 275.730017 
L 172.484028 275.837752 
L 172.443588 275.94562 
L 172.403496 276.053616 
L 172.363754 276.161743 
L 172.324361 276.269997 
L 172.285318 276.378378 
L 172.246627 276.486885 
L 172.208267 276.59551 
L 172.208267 276.59551 
L 172.208267 276.59551 
L 171.846526 277.689098 
L 171.518654 278.793253 
L 171.227382 279.907584 
L 170.973525 281.030163 
L 170.757438 282.1601 
L 170.579121 283.297394 
L 170.438841 284.440745 
L 170.337017 285.58811 
L 170.273911 286.738207 
L 170.249789 287.889751 
L 170.264912 289.041456 
L 170.319545 290.192041 
L 170.41322 291.34019 
L 170.54527 292.484586 
L 170.715546 293.623927 
L 170.923899 294.756913 
L 171.170181 295.882244 
L 171.170181 295.882244 
L 171.196978 295.994284 
L 171.224125 296.106238 
L 171.251644 296.218101 
L 171.279535 296.329873 
L 171.307795 296.441552 
L 171.336425 296.553135 
L 171.365424 296.664624 
L 171.394792 296.776015 
L 171.424523 296.887301 
L 171.454618 296.998483 
L 171.485077 297.109559 
L 171.515901 297.22053 
L 171.547088 297.331396 
L 171.578639 297.442157 
L 171.610554 297.552813 
L 171.642833 297.663364 
L 171.675476 297.77381 
L 171.708483 297.884151 
L 171.741854 297.994387 
L 171.775589 298.104518 
L 171.809688 298.214544 
" style="fill:none;stroke:#000000;stroke-linecap:square;stroke-width:1.5;"/>
   </g>
   <g id="line2d_32">
    <path clip-path="url(#p198597c99f)" d="M 402.868309 274.236251 
L 402.913877 274.342049 
L 402.959104 274.447986 
L 403.003989 274.554061 
L 403.048533 274.660274 
L 403.092735 274.766626 
L 403.136595 274.873116 
L 403.180114 274.979744 
L 403.223292 275.086511 
L 403.266128 275.193416 
L 403.308622 275.30046 
L 403.350775 275.407642 
L 403.392587 275.514962 
L 403.434057 275.62242 
L 403.475185 275.730017 
L 403.515972 275.837752 
L 403.556412 275.94562 
L 403.596504 276.053616 
L 403.636246 276.161743 
L 403.675639 276.269997 
L 403.714682 276.378378 
L 403.753373 276.486885 
L 403.791733 276.59551 
L 403.791733 276.59551 
L 403.791733 276.59551 
L 404.153474 277.689098 
L 404.481346 278.793253 
L 404.772618 279.907584 
L 405.026475 281.030163 
L 405.242562 282.1601 
L 405.420879 283.297394 
L 405.561159 284.440745 
L 405.662983 285.58811 
L 405.726089 286.738207 
L 405.750211 287.889751 
L 405.735088 289.041456 
L 405.680455 290.192041 
L 405.58678 291.34019 
L 405.45473 292.484586 
L 405.284454 293.623927 
L 405.076101 294.756913 
L 404.829819 295.882244 
L 404.829819 295.882244 
L 404.803022 295.994284 
L 404.775875 296.106238 
L 404.748356 296.218101 
L 404.720465 296.329873 
L 404.692205 296.441552 
L 404.663575 296.553135 
L 404.634576 296.664624 
L 404.605208 296.776015 
L 404.575477 296.887301 
L 404.545382 296.998483 
L 404.514923 297.109559 
L 404.484099 297.22053 
L 404.452912 297.331396 
L 404.421361 297.442157 
L 404.389446 297.552813 
L 404.357167 297.663364 
L 404.324524 297.77381 
L 404.291517 297.884151 
L 404.258146 297.994387 
L 404.224411 298.104518 
L 404.190312 298.214544 
" style="fill:none;stroke:#000000;stroke-linecap:square;stroke-width:1.5;"/>
   </g>
   <g id="line2d_33">
    <path clip-path="url(#p198597c99f)" d="M 172.378907 281.027257 
L 172.355275 281.139997 
L 172.332027 281.252809 
L 172.309162 281.365693 
L 172.286681 281.47865 
L 172.264583 281.591678 
L 172.242868 281.704779 
L 172.221538 281.817952 
L 172.20059 281.931197 
L 172.180026 282.044514 
L 172.159846 282.157904 
L 172.140049 282.271365 
L 172.120636 282.384899 
L 172.101606 282.498505 
L 172.08296 282.612183 
L 172.0647 282.725926 
L 172.046827 282.839729 
L 172.029342 282.953593 
L 172.012244 283.067516 
L 171.995535 283.181496 
L 171.979214 283.295532 
L 171.963258 283.409621 
L 171.963258 283.409621 
L 171.825602 284.552065 
L 171.727133 285.698313 
L 171.667868 286.848267 
L 171.648 288 
L 171.648 288 
L 171.667868 289.151733 
L 171.727133 290.301687 
L 171.825602 291.447935 
L 171.963258 292.590379 
L 171.963258 292.590379 
L 171.979214 292.704468 
L 171.995535 292.818504 
L 172.012244 292.932484 
L 172.029342 293.046407 
L 172.046827 293.160271 
L 172.0647 293.274074 
L 172.08296 293.387817 
L 172.101606 293.501495 
L 172.120636 293.615101 
L 172.140049 293.728635 
L 172.159846 293.842096 
L 172.180026 293.955486 
L 172.20059 294.068803 
L 172.221538 294.182048 
L 172.242868 294.295221 
L 172.264583 294.408322 
L 172.286681 294.52135 
L 172.309162 294.634307 
L 172.332027 294.747191 
L 172.355275 294.860003 
L 172.378907 294.972743 
" style="fill:none;stroke:#000000;stroke-linecap:square;stroke-width:1.5;"/>
   </g>
   <g id="line2d_34">
    <path clip-path="url(#p198597c99f)" d="M 403.621093 281.027257 
L 403.644725 281.139997 
L 403.667973 281.252809 
L 403.690838 281.365693 
L 403.713319 281.47865 
L 403.735417 281.591678 
L 403.757132 281.704779 
L 403.778462 281.817952 
L 403.79941 281.931197 
L 403.819974 282.044514 
L 403.840154 282.157904 
L 403.859951 282.271365 
L 403.879364 282.384899 
L 403.898394 282.498505 
L 403.91704 282.612183 
L 403.9353 282.725926 
L 403.953173 282.839729 
L 403.970658 282.953593 
L 403.987756 283.067516 
L 404.004465 283.181496 
L 404.020786 283.295532 
L 404.036742 283.409621 
L 404.036742 283.409621 
L 404.174398 284.552065 
L 404.272867 285.698313 
L 404.332132 286.848267 
L 404.352 288 
L 404.352 288 
L 404.332132 289.151733 
L 404.272867 290.301687 
L 404.174398 291.447935 
L 404.036742 292.590379 
L 404.036742 292.590379 
L 404.020786 292.704468 
L 404.004465 292.818504 
L 403.987756 292.932484 
L 403.970658 293.046407 
L 403.953173 293.160271 
L 403.9353 293.274074 
L 403.91704 293.387817 
L 403.898394 293.501495 
L 403.879364 293.615101 
L 403.859951 293.728635 
L 403.840154 293.842096 
L 403.819974 293.955486 
L 403.79941 294.068803 
L 403.778462 294.182048 
L 403.757132 294.295221 
L 403.735417 294.408322 
L 403.713319 294.52135 
L 403.690838 294.634307 
L 403.667973 294.747191 
L 403.644725 294.860003 
L 403.621093 294.972743 
" style="fill:none;stroke:#000000;stroke-linecap:square;stroke-width:1.5;"/>
   </g>
   <g id="line2d_35">
    <path clip-path="url(#p198597c99f)" d="M 171.809688 277.785456 
L 171.775589 277.895482 
L 171.741854 278.005613 
L 171.708483 278.115849 
L 171.675476 278.22619 
L 171.642833 278.336636 
L 171.610554 278.447187 
L 171.578639 278.557843 
L 171.547088 278.668604 
L 171.515901 278.77947 
L 171.485077 278.890441 
L 171.454618 279.001517 
L 171.424523 279.112699 
L 171.394792 279.223985 
L 171.365424 279.335376 
L 171.336425 279.446865 
L 171.307795 279.558448 
L 171.279535 279.670127 
L 171.251644 279.781899 
L 171.224125 279.893762 
L 171.196978 280.005716 
L 171.170181 280.117756 
L 171.170181 280.117756 
L 170.923899 281.243087 
L 170.715546 282.376073 
L 170.54527 283.515414 
L 170.41322 284.65981 
L 170.319545 285.807959 
L 170.264912 286.958544 
L 170.249789 288.110249 
L 170.273911 289.261793 
L 170.337017 290.41189 
L 170.438841 291.559255 
L 170.579121 292.702606 
L 170.757438 293.8399 
L 170.973525 294.969837 
L 171.227382 296.092416 
L 171.518654 297.206747 
L 171.846526 298.310902 
L 172.208267 299.40449 
L 172.208267 299.40449 
L 172.208267 299.40449 
L 172.246627 299.513115 
L 172.285318 299.621622 
L 172.324361 299.730003 
L 172.363754 299.838257 
L 172.403496 299.946384 
L 172.443588 300.05438 
L 172.484028 300.162248 
L 172.524815 300.269983 
L 172.565943 300.37758 
L 172.607413 300.485038 
L 172.649225 300.592358 
L 172.691378 300.69954 
L 172.733872 300.806584 
L 172.776708 300.913489 
L 172.819886 301.020256 
L 172.863405 301.126884 
L 172.907265 301.233374 
L 172.951467 301.339726 
L 172.996011 301.445939 
L 173.040896 301.552014 
L 173.086123 301.657951 
L 173.131691 301.763749 
" style="fill:none;stroke:#000000;stroke-linecap:square;stroke-width:1.5;"/>
   </g>
   <g id="line2d_36">
    <path clip-path="url(#p198597c99f)" d="M 404.190312 277.785456 
L 404.224411 277.895482 
L 404.258146 278.005613 
L 404.291517 278.115849 
L 404.324524 278.22619 
L 404.357167 278.336636 
L 404.389446 278.447187 
L 404.421361 278.557843 
L 404.452912 278.668604 
L 404.484099 278.77947 
L 404.514923 278.890441 
L 404.545382 279.001517 
L 404.575477 279.112699 
L 404.605208 279.223985 
L 404.634576 279.335376 
L 404.663575 279.446865 
L 404.692205 279.558448 
L 404.720465 279.670127 
L 404.748356 279.781899 
L 404.775875 279.893762 
L 404.803022 280.005716 
L 404.829819 280.117756 
L 404.829819 280.117756 
L 405.076101 281.243087 
L 405.284454 282.376073 
L 405.45473 283.515414 
L 405.58678 284.65981 
L 405.680455 285.807959 
L 405.735088 286.958544 
L 405.750211 288.110249 
L 405.726089 289.261793 
L 405.662983 290.41189 
L 405.561159 291.559255 
L 405.420879 292.702606 
L 405.242562 293.8399 
L 405.026475 294.969837 
L 404.772618 296.092416 
L 404.481346 297.206747 
L 404.153474 298.310902 
L 403.791733 299.40449 
L 403.791733 299.40449 
L 403.791733 299.40449 
L 403.753373 299.513115 
L 403.714682 299.621622 
L 403.675639 299.730003 
L 403.636246 299.838257 
L 403.596504 299.946384 
L 403.556412 300.05438 
L 403.515972 300.162248 
L 403.475185 300.269983 
L 403.434057 300.37758 
L 403.392587 300.485038 
L 403.350775 300.592358 
L 403.308622 300.69954 
L 403.266128 300.806584 
L 403.223292 300.913489 
L 403.180114 301.020256 
L 403.136595 301.126884 
L 403.092735 301.233374 
L 403.048533 301.339726 
L 403.003989 301.445939 
L 402.959104 301.552014 
L 402.913877 301.657951 
L 402.868309 301.763749 
" style="fill:none;stroke:#000000;stroke-linecap:square;stroke-width:1.5;"/>
   </g>
   <g id="line2d_37">
    <path clip-path="url(#p198597c99f)" d="M 174.702558 264.269183 
L 174.629389 264.358162 
L 174.556464 264.44734 
L 174.483783 264.536717 
L 174.411346 264.626293 
L 174.339156 264.716067 
L 174.267213 264.806039 
L 174.195502 264.896197 
L 174.195502 264.896197 
L 173.492569 265.809013 
L 172.815365 266.741153 
L 172.164737 267.691998 
L 171.541534 268.660932 
L 170.94666 269.64747 
L 170.381049 270.651196 
L 169.845459 271.671283 
L 169.340641 272.706888 
L 168.867353 273.757173 
L 168.426578 274.821543 
L 168.01906 275.899149 
L 167.645357 276.988939 
L 167.306025 278.089861 
L 167.001702 279.200904 
L 166.733299 280.321192 
L 166.501164 281.449572 
L 166.305566 282.584847 
L 166.146769 283.725823 
L 166.025315 284.871334 
L 165.941668 286.020206 
L 165.895764 287.171208 
L 165.887532 288.32311 
L 165.916926 289.474675 
L 165.984288 290.624568 
L 166.08944 291.771585 
L 166.231992 292.914577 
L 166.411552 294.052394 
L 166.627856 295.183804 
L 166.880806 296.30746 
L 167.169774 297.422372 
L 167.494093 298.527576 
L 167.853095 299.622106 
L 168.246256 300.704787 
L 168.67294 301.774605 
L 169.132341 302.830803 
L 169.623652 303.87262 
L 170.145959 304.899196 
L 170.697783 305.909137 
L 171.278858 306.902193 
L 171.889186 307.878366 
L 172.527788 308.836932 
L 173.193401 309.776988 
L 173.883671 310.699149 
L 173.883671 310.699149 
L 173.883671 310.699149 
L 173.954271 310.79018 
L 174.025107 310.881026 
L 174.096193 310.971677 
L 174.167529 311.062132 
L 174.239113 311.15239 
L 174.310944 311.242451 
L 174.383023 311.332315 
" style="fill:none;stroke:#000000;stroke-linecap:square;stroke-width:1.5;"/>
   </g>
   <g id="line2d_38">
    <path clip-path="url(#p198597c99f)" d="M 401.297442 264.269183 
L 401.370611 264.358162 
L 401.443536 264.44734 
L 401.516217 264.536717 
L 401.588654 264.626293 
L 401.660844 264.716067 
L 401.732787 264.806039 
L 401.804498 264.896197 
L 401.804498 264.896197 
L 402.507431 265.809013 
L 403.184635 266.741153 
L 403.835263 267.691998 
L 404.458466 268.660932 
L 405.05334 269.64747 
L 405.618951 270.651196 
L 406.154541 271.671283 
L 406.659359 272.706888 
L 407.132647 273.757173 
L 407.573422 274.821543 
L 407.98094 275.899149 
L 408.354643 276.988939 
L 408.693975 278.089861 
L 408.998298 279.200904 
L 409.266701 280.321192 
L 409.498836 281.449572 
L 409.694434 282.584847 
L 409.853231 283.725823 
L 409.974685 284.871334 
L 410.058332 286.020206 
L 410.104236 287.171208 
L 410.112468 288.32311 
L 410.083074 289.474675 
L 410.015712 290.624568 
L 409.91056 291.771585 
L 409.768008 292.914577 
L 409.588448 294.052394 
L 409.372144 295.183804 
L 409.119194 296.30746 
L 408.830226 297.422372 
L 408.505907 298.527576 
L 408.146905 299.622106 
L 407.753744 300.704787 
L 407.32706 301.774605 
L 406.867659 302.830803 
L 406.376348 303.87262 
L 405.854041 304.899196 
L 405.302217 305.909137 
L 404.721142 306.902193 
L 404.110814 307.878366 
L 403.472212 308.836932 
L 402.806599 309.776988 
L 402.116329 310.699149 
L 402.116329 310.699149 
L 402.116329 310.699149 
L 402.045729 310.79018 
L 401.974893 310.881026 
L 401.903807 310.971677 
L 401.832471 311.062132 
L 401.760887 311.15239 
L 401.689056 311.242451 
L 401.616977 311.332315 
" style="fill:none;stroke:#000000;stroke-linecap:square;stroke-width:1.5;"/>
   </g>
   <g id="line2d_39">
    <path clip-path="url(#p198597c99f)" d="M 177.67093 253.512073 
L 177.575666 253.576847 
L 177.480543 253.641828 
L 177.385562 253.707016 
L 177.290723 253.772412 
L 177.196029 253.838015 
L 177.101478 253.903826 
L 177.007063 253.969832 
L 177.007063 253.969832 
L 176.071182 254.641768 
L 175.150472 255.334459 
L 174.245631 256.047742 
L 173.35736 256.781455 
L 172.486354 257.535439 
L 171.633225 258.309713 
L 170.798667 259.104126 
L 169.98344 259.918385 
L 169.188307 260.752192 
L 168.414029 261.605255 
L 167.661363 262.477444 
L 166.931069 263.368632 
L 166.22391 264.278336 
L 165.540652 265.206072 
L 164.88206 266.151354 
L 164.248916 267.113784 
L 163.642043 268.093165 
L 163.062174 269.088851 
L 162.510033 270.100149 
L 161.986343 271.126368 
L 161.491852 272.166843 
L 161.027568 273.221223 
L 160.594154 274.28874 
L 160.192144 275.368478 
L 159.822074 276.45952 
L 159.484482 277.56095 
L 159.18027 278.672038 
L 158.910073 279.791921 
L 158.674135 280.919531 
L 158.472697 282.053801 
L 158.306002 283.193663 
L 158.174519 284.338073 
L 158.078832 285.485999 
L 158.018889 286.636343 
L 157.994614 287.788006 
L 158.005931 288.939888 
L 158.052867 290.09086 
L 158.135832 291.239682 
L 158.254536 292.385315 
L 158.408574 293.526757 
L 158.597541 294.663002 
L 158.821048 295.793034 
L 159.07903 296.915567 
L 159.371052 298.029623 
L 159.696476 299.134389 
L 160.054667 300.22905 
L 160.444989 301.312794 
L 160.866928 302.384571 
L 161.31992 303.44343 
L 161.803214 304.488778 
L 162.316057 305.520025 
L 162.857695 306.536579 
L 163.427394 307.53773 
L 164.024439 308.522616 
L 164.64805 309.490832 
L 165.297445 310.442 
L 165.971839 311.375742 
L 166.67044 312.291651 
L 167.392399 313.189122 
L 168.136955 314.067854 
L 168.903366 314.927616 
L 169.690891 315.768179 
L 170.498774 316.58931 
L 171.325551 317.390555 
L 172.1706 318.171719 
L 173.033919 318.932805 
L 173.915473 319.673803 
L 174.814043 320.394446 
L 175.728757 321.094547 
L 176.658078 321.775203 
L 176.658078 321.775203 
L 176.658078 321.775203 
L 176.751937 321.841997 
L 176.845934 321.908596 
L 176.940078 321.974988 
L 177.034368 322.041172 
L 177.128804 322.107148 
L 177.223383 322.172916 
L 177.318108 322.238477 
" style="fill:none;stroke:#000000;stroke-linecap:square;stroke-width:1.5;"/>
   </g>
   <g id="line2d_40">
    <path clip-path="url(#p198597c99f)" d="M 398.32907 253.512073 
L 398.424334 253.576847 
L 398.519457 253.641828 
L 398.614438 253.707016 
L 398.709277 253.772412 
L 398.803971 253.838015 
L 398.898522 253.903826 
L 398.992937 253.969832 
L 398.992937 253.969832 
L 399.928818 254.641768 
L 400.849528 255.334459 
L 401.754369 256.047742 
L 402.64264 256.781455 
L 403.513646 257.535439 
L 404.366775 258.309713 
L 405.201333 259.104126 
L 406.01656 259.918385 
L 406.811693 260.752192 
L 407.585971 261.605255 
L 408.338637 262.477444 
L 409.068931 263.368632 
L 409.77609 264.278336 
L 410.459348 265.206072 
L 411.11794 266.151354 
L 411.751084 267.113784 
L 412.357957 268.093165 
L 412.937826 269.088851 
L 413.489967 270.100149 
L 414.013657 271.126368 
L 414.508148 272.166843 
L 414.972432 273.221223 
L 415.405846 274.28874 
L 415.807856 275.368478 
L 416.177926 276.45952 
L 416.515518 277.56095 
L 416.81973 278.672038 
L 417.089927 279.791921 
L 417.325865 280.919531 
L 417.527303 282.053801 
L 417.693998 283.193663 
L 417.825481 284.338073 
L 417.921168 285.485999 
L 417.981111 286.636343 
L 418.005386 287.788006 
L 417.994069 288.939888 
L 417.947133 290.09086 
L 417.864168 291.239682 
L 417.745464 292.385315 
L 417.591426 293.526757 
L 417.402459 294.663002 
L 417.178952 295.793034 
L 416.92097 296.915567 
L 416.628948 298.029623 
L 416.303524 299.134389 
L 415.945333 300.22905 
L 415.555011 301.312794 
L 415.133072 302.384571 
L 414.68008 303.44343 
L 414.196786 304.488778 
L 413.683943 305.520025 
L 413.142305 306.536579 
L 412.572606 307.53773 
L 411.975561 308.522616 
L 411.35195 309.490832 
L 410.702555 310.442 
L 410.028161 311.375742 
L 409.32956 312.291651 
L 408.607601 313.189122 
L 407.863045 314.067854 
L 407.096634 314.927616 
L 406.309109 315.768179 
L 405.501226 316.58931 
L 404.674449 317.390555 
L 403.8294 318.171719 
L 402.966081 318.932805 
L 402.084527 319.673803 
L 401.185957 320.394446 
L 400.271243 321.094547 
L 399.341922 321.775203 
L 399.341922 321.775203 
L 399.341922 321.775203 
L 399.248063 321.841997 
L 399.154066 321.908596 
L 399.059922 321.974988 
L 398.965632 322.041172 
L 398.871196 322.107148 
L 398.776617 322.172916 
L 398.681892 322.238477 
" style="fill:none;stroke:#000000;stroke-linecap:square;stroke-width:1.5;"/>
   </g>
   <g id="line2d_41">
    <path clip-path="url(#p198597c99f)" d="M 181.541209 243.087822 
L 178.527561 244.236118 
L 178.527561 244.236118 
L 175.364225 245.628203 
L 172.280105 247.187387 
L 169.286498 248.914525 
L 166.396175 250.809096 
L 163.621898 252.870292 
L 160.978088 255.096282 
L 158.480577 257.485184 
L 156.145827 260.033632 
L 153.991672 262.736017 
L 152.036021 265.585839 
L 150.29754 268.572347 
L 148.794984 271.68477 
L 147.545035 274.906138 
L 146.565345 278.219969 
L 145.867017 281.603769 
L 145.462973 285.034916 
L 145.356231 288.488128 
L 145.551058 291.936806 
L 146.042157 295.35632 
L 146.823552 298.720625 
L 147.883211 302.008416 
L 149.206463 305.198965 
L 150.777084 308.275511 
L 152.57733 311.223713 
L 154.589356 314.031544 
L 156.794704 316.690815 
L 159.175252 319.194112 
L 161.714237 321.537343 
L 164.394949 323.716532 
L 167.202772 325.730187 
L 170.122932 327.576806 
L 173.142247 329.256222 
L 176.246445 330.768436 
L 179.429175 332.113567 
L 181.262117 332.802918 
L 181.262117 332.802918 
" style="fill:none;stroke:#000000;stroke-linecap:square;stroke-width:1.5;"/>
   </g>
   <g id="line2d_42">
    <path clip-path="url(#p198597c99f)" d="M 394.458791 243.087822 
L 397.472439 244.236118 
L 397.472439 244.236118 
L 400.635775 245.628203 
L 403.719895 247.187387 
L 406.713502 248.914525 
L 409.603825 250.809096 
L 412.378102 252.870292 
L 415.021912 255.096282 
L 417.519423 257.485184 
L 419.854173 260.033632 
L 422.008328 262.736017 
L 423.963979 265.585839 
L 425.70246 268.572347 
L 427.205016 271.68477 
L 428.454965 274.906138 
L 429.434655 278.219969 
L 430.132983 281.603769 
L 430.537027 285.034916 
L 430.643769 288.488128 
L 430.448942 291.936806 
L 429.957843 295.35632 
L 429.176448 298.720625 
L 428.116789 302.008416 
L 426.793537 305.198965 
L 425.222916 308.275511 
L 423.42267 311.223713 
L 421.410644 314.031544 
L 419.205296 316.690815 
L 416.824748 319.194112 
L 414.285763 321.537343 
L 411.605051 323.716532 
L 408.797228 325.730187 
L 405.877068 327.576806 
L 402.857753 329.256222 
L 399.753555 330.768436 
L 396.570825 332.113567 
L 394.737883 332.802918 
L 394.737883 332.802918 
" style="fill:none;stroke:#000000;stroke-linecap:square;stroke-width:1.5;"/>
   </g>
   <g id="line2d_43">
    <path clip-path="url(#p198597c99f)" d="M 186.151631 233.053446 
L 181.928833 233.63144 
L 177.401555 234.488674 
L 172.927042 235.58865 
L 168.519616 236.932743 
L 164.194519 238.522093 
L 159.967997 240.357964 
L 155.858349 242.442308 
L 151.885156 244.776761 
L 149.008415 246.692411 
L 146.230452 248.749993 
L 143.563621 250.94852 
L 141.01912 253.288415 
L 138.609979 255.768015 
L 136.351118 258.383773 
L 134.256824 261.134707 
L 132.342918 264.013591 
L 130.626222 267.013167 
L 129.123797 270.126841 
L 127.84968 273.339643 
L 126.821414 276.638734 
L 126.051831 280.007874 
L 125.54783 283.426156 
L 125.321995 286.872997 
L 125.374121 290.327077 
L 125.701851 293.765821 
L 126.304289 297.165843 
L 127.169664 300.509776 
L 128.286869 303.777718 
L 129.643047 306.953188 
L 131.222139 310.025692 
L 133.007743 312.981681 
L 134.984152 315.81402 
L 137.135432 318.51733 
L 139.445052 321.085472 
L 141.899714 323.516411 
L 144.485423 325.807826 
L 147.189177 327.958072 
L 150.000331 329.967139 
L 152.907094 331.834702 
L 156.915216 334.105257 
L 161.055159 336.126136 
L 165.307353 337.89879 
L 169.65438 339.424932 
L 174.07982 340.706166 
L 178.566538 341.744125 
L 183.103538 342.53981 
L 186.187676 342.941266 
L 186.187676 342.941266 
" style="fill:none;stroke:#000000;stroke-linecap:square;stroke-width:1.5;"/>
   </g>
   <g id="line2d_44">
    <path clip-path="url(#p198597c99f)" d="M 389.848369 233.053446 
L 394.071167 233.63144 
L 398.598445 234.488674 
L 403.072958 235.58865 
L 407.480384 236.932743 
L 411.805481 238.522093 
L 416.032003 240.357964 
L 420.141651 242.442308 
L 424.114844 244.776761 
L 426.991585 246.692411 
L 429.769548 248.749993 
L 432.436379 250.94852 
L 434.98088 253.288415 
L 437.390021 255.768015 
L 439.648882 258.383773 
L 441.743176 261.134707 
L 443.657082 264.013591 
L 445.373778 267.013167 
L 446.876203 270.126841 
L 448.15032 273.339643 
L 449.178586 276.638734 
L 449.948169 280.007874 
L 450.45217 283.426156 
L 450.678005 286.872997 
L 450.625879 290.327077 
L 450.298149 293.765821 
L 449.695711 297.165843 
L 448.830336 300.509776 
L 447.713131 303.777718 
L 446.356953 306.953188 
L 444.777861 310.025692 
L 442.992257 312.981681 
L 441.015848 315.81402 
L 438.864568 318.51733 
L 436.554948 321.085472 
L 434.100286 323.516411 
L 431.514577 325.807826 
L 428.810823 327.958072 
L 425.999669 329.967139 
L 423.092906 331.834702 
L 419.084784 334.105257 
L 414.944841 336.126136 
L 410.692647 337.89879 
L 406.34562 339.424932 
L 401.92018 340.706166 
L 397.433462 341.744125 
L 392.896462 342.53981 
L 389.812324 342.941266 
L 389.812324 342.941266 
" style="fill:none;stroke:#000000;stroke-linecap:square;stroke-width:1.5;"/>
   </g>
   <g id="line2d_45">
    <path clip-path="url(#p198597c99f)" d="M 192.12596 223.45323 
L 187.533107 223.086229 
L 182.929295 222.904975 
L 178.321823 222.908457 
L 173.717993 223.095665 
L 169.125089 223.465287 
L 164.550423 224.016534 
L 160.001215 224.748859 
L 155.484583 225.661604 
L 151.00836 226.754876 
L 146.579779 228.028427 
L 142.207186 229.482717 
L 137.899456 231.118612 
L 133.665005 232.936789 
L 129.514842 234.939013 
L 125.459527 237.126956 
L 121.511573 239.502911 
L 117.684674 242.069597 
L 113.99489 244.829771 
L 110.460603 247.786233 
L 107.102894 250.942378 
L 103.946817 254.299737 
L 101.728134 256.950252 
L 99.65239 259.713609 
L 97.734003 262.589214 
L 95.989835 265.572806 
L 94.436938 268.661153 
L 93.092584 271.844822 
L 91.975623 275.115678 
L 91.100358 278.458711 
L 90.483475 281.858559 
L 90.133298 285.296074 
L 90.058038 288.749401 
L 90.258148 292.197796 
L 90.728904 295.617968 
L 91.464607 298.987614 
L 92.449285 302.294897 
L 93.666729 305.52711 
L 95.100537 308.665895 
L 96.73472 311.705038 
L 98.553374 314.640979 
L 100.53783 317.467566 
L 102.672074 320.181135 
L 104.944253 322.781921 
L 108.165322 326.074075 
L 111.576953 329.165579 
L 115.160639 332.059018 
L 118.890346 334.758464 
L 122.748141 337.266674 
L 126.723115 339.585257 
L 130.804361 341.715825 
L 134.980691 343.66012 
L 139.237199 345.421644 
L 143.563926 347.001558 
L 147.952905 348.400084 
L 152.396166 349.617443 
L 156.885656 350.653962 
L 161.413032 351.510316 
L 165.970891 352.186038 
L 170.55201 352.680584 
L 175.149151 352.993312 
L 179.75486 353.123202 
L 184.359834 353.068972 
L 188.960661 352.830127 
L 192.05954 352.564493 
L 192.05954 352.564493 
" style="fill:none;stroke:#000000;stroke-linecap:square;stroke-width:1.5;"/>
   </g>
   <g id="line2d_46">
    <path clip-path="url(#p198597c99f)" d="M 383.87404 223.45323 
L 388.466893 223.086229 
L 393.070705 222.904975 
L 397.678177 222.908457 
L 402.282007 223.095665 
L 406.874911 223.465287 
L 411.449577 224.016534 
L 415.998785 224.748859 
L 420.515417 225.661604 
L 424.99164 226.754876 
L 429.420221 228.028427 
L 433.792814 229.482717 
L 438.100544 231.118612 
L 442.334995 232.936789 
L 446.485158 234.939013 
L 450.540473 237.126956 
L 454.488427 239.502911 
L 458.315326 242.069597 
L 462.00511 244.829771 
L 465.539397 247.786233 
L 468.897106 250.942378 
L 472.053183 254.299737 
L 474.271866 256.950252 
L 476.34761 259.713609 
L 478.265997 262.589214 
L 480.010165 265.572806 
L 481.563062 268.661153 
L 482.907416 271.844822 
L 484.024377 275.115678 
L 484.899642 278.458711 
L 485.516525 281.858559 
L 485.866702 285.296074 
L 485.941962 288.749401 
L 485.741852 292.197796 
L 485.271096 295.617968 
L 484.535393 298.987614 
L 483.550715 302.294897 
L 482.333271 305.52711 
L 480.899463 308.665895 
L 479.26528 311.705038 
L 477.446626 314.640979 
L 475.46217 317.467566 
L 473.327926 320.181135 
L 471.055747 322.781921 
L 467.834678 326.074075 
L 464.423047 329.165579 
L 460.839361 332.059018 
L 457.109654 334.758464 
L 453.251859 337.266674 
L 449.276885 339.585257 
L 445.195639 341.715825 
L 441.019309 343.66012 
L 436.762801 345.421644 
L 432.436074 347.001558 
L 428.047095 348.400084 
L 423.603834 349.617443 
L 419.114344 350.653962 
L 414.586968 351.510316 
L 410.029109 352.186038 
L 405.44799 352.680584 
L 400.850849 352.993312 
L 396.24514 353.123202 
L 391.640166 353.068972 
L 387.039339 352.830127 
L 383.94046 352.564493 
L 383.94046 352.564493 
" style="fill:none;stroke:#000000;stroke-linecap:square;stroke-width:1.5;"/>
   </g>
   <g id="line2d_47">
    <path clip-path="url(#p198597c99f)" d="M 7.890356 348.743167 
L 11.613466 347.977534 
L 15.375147 347.43677 
L 18.814208 347.139523 
L 23.413672 347.005807 
L 28.016186 347.137656 
L 32.607561 347.49984 
L 37.176053 348.059224 
L 42.856401 348.985121 
L 49.630949 350.343721 
L 57.483985 352.149552 
L 69.767337 355.247685 
L 86.521955 359.472926 
L 96.624266 361.803964 
L 105.65179 363.657528 
L 113.590886 365.070434 
L 121.566912 366.257868 
L 128.431028 367.075538 
L 135.31546 367.693334 
L 142.216225 368.096622 
L 149.126237 368.272447 
L 156.038232 368.208198 
L 162.943462 367.891729 
L 168.684692 367.427063 
L 174.407767 366.772379 
L 180.10472 365.921735 
L 185.766066 364.868418 
L 191.384763 363.607459 
L 196.952165 362.133325 
L 198.831622 361.583033 
L 198.831622 361.583033 
" style="fill:none;stroke:#1f77b4;stroke-linecap:square;stroke-width:1.5;"/>
   </g>
   <g id="line2d_48">
    <path clip-path="url(#p198597c99f)" d="M 568.109644 348.743167 
L 564.386534 347.977534 
L 560.624853 347.43677 
L 557.185792 347.139523 
L 552.586328 347.005807 
L 547.983814 347.137656 
L 543.392439 347.49984 
L 538.823947 348.059224 
L 533.143599 348.985121 
L 526.369051 350.343721 
L 518.516015 352.149552 
L 506.232663 355.247685 
L 489.478045 359.472926 
L 479.375734 361.803964 
L 470.34821 363.657528 
L 462.409114 365.070434 
L 454.433088 366.257868 
L 447.568972 367.075538 
L 440.68454 367.693334 
L 433.783775 368.096622 
L 426.873763 368.272447 
L 419.961768 368.208198 
L 413.056538 367.891729 
L 407.315308 367.427063 
L 401.592233 366.772379 
L 395.89528 365.921735 
L 390.233934 364.868418 
L 384.615237 363.607459 
L 379.047835 362.133325 
L 377.168378 361.583033 
L 377.168378 361.583033 
" style="fill:none;stroke:#1f77b4;stroke-linecap:square;stroke-width:1.5;"/>
   </g>
   <g id="line2d_49">
    <path clip-path="url(#p198597c99f)" d="M 34.36135 420.013148 
L 38.990248 417.680318 
L 44.219849 415.271359 
L 49.530933 413.047924 
L 55.997608 410.610727 
L 62.548003 408.413296 
L 69.167726 406.431355 
L 76.958619 404.356335 
L 84.803153 402.495619 
L 94.944203 400.34234 
L 108.518803 397.731651 
L 135.685174 392.587919 
L 146.952909 390.186932 
L 155.920898 388.060132 
L 164.831684 385.704472 
L 172.567523 383.424835 
L 180.231717 380.915813 
L 186.73235 378.565171 
L 193.156386 376.015903 
L 199.491785 373.25536 
L 205.829677 370.221625 
L 206.446795 369.910302 
L 206.446795 369.910302 
" style="fill:none;stroke:#1f77b4;stroke-linecap:square;stroke-width:1.5;"/>
   </g>
   <g id="line2d_50">
    <path clip-path="url(#p198597c99f)" d="M 541.63865 420.013148 
L 537.009752 417.680318 
L 531.780151 415.271359 
L 526.469067 413.047924 
L 520.002392 410.610727 
L 513.451997 408.413296 
L 506.832274 406.431355 
L 499.041381 404.356335 
L 491.196847 402.495619 
L 481.055797 400.34234 
L 467.481197 397.731651 
L 440.314826 392.587919 
L 429.047091 390.186932 
L 420.079102 388.060132 
L 411.168316 385.704472 
L 403.432477 383.424835 
L 395.768283 380.915813 
L 389.26765 378.565171 
L 382.843614 376.015903 
L 376.508215 373.25536 
L 370.170323 370.221625 
L 369.553205 369.910302 
L 369.553205 369.910302 
" style="fill:none;stroke:#1f77b4;stroke-linecap:square;stroke-width:1.5;"/>
   </g>
   <g id="line2d_51">
    <path clip-path="url(#p198597c99f)" d="M 61.569906 464.003772 
L 67.433244 459.534899 
L 73.050676 455.509866 
L 79.738765 451.00673 
L 86.556516 446.702382 
L 93.48798 442.584423 
L 101.527898 438.08127 
L 110.69424 433.239653 
L 120.991256 428.075633 
L 134.484312 421.57927 
L 162.540405 408.148557 
L 172.825951 402.958668 
L 181.983412 398.094636 
L 190.017053 393.577427 
L 196.944864 389.448915 
L 203.757575 385.135486 
L 210.437354 380.619322 
L 214.930561 377.39673 
L 214.930561 377.39673 
" style="fill:none;stroke:#1f77b4;stroke-linecap:square;stroke-width:1.5;"/>
   </g>
   <g id="line2d_52">
    <path clip-path="url(#p198597c99f)" d="M 514.430094 464.003772 
L 508.566756 459.534899 
L 502.949324 455.509866 
L 496.261235 451.00673 
L 489.443484 446.702382 
L 482.51202 442.584423 
L 474.472102 438.08127 
L 465.30576 433.239653 
L 455.008744 428.075633 
L 441.515688 421.57927 
L 413.459595 408.148557 
L 403.174049 402.958668 
L 394.016588 398.094636 
L 385.982947 393.577427 
L 379.055136 389.448915 
L 372.242425 385.135486 
L 365.562646 380.619322 
L 361.069439 377.39673 
L 361.069439 377.39673 
" style="fill:none;stroke:#1f77b4;stroke-linecap:square;stroke-width:1.5;"/>
   </g>
   <g id="line2d_53">
    <path clip-path="url(#p198597c99f)" d="M 92.566076 495.255108 
L 98.014111 489.626709 
L 104.584901 483.16707 
L 111.314832 476.873095 
L 118.186912 470.733473 
L 126.06735 463.998955 
L 134.976468 456.697145 
L 144.919115 448.842574 
L 158.625187 438.319769 
L 183.321431 419.409899 
L 193.240558 411.523164 
L 202.113445 404.175605 
L 209.07952 398.141234 
L 215.896922 391.941026 
L 221.721446 386.36457 
L 224.09057 384.009176 
L 224.09057 384.009176 
" style="fill:none;stroke:#1f77b4;stroke-linecap:square;stroke-width:1.5;"/>
   </g>
   <g id="line2d_54">
    <path clip-path="url(#p198597c99f)" d="M 483.433924 495.255108 
L 477.985889 489.626709 
L 471.415099 483.16707 
L 464.685168 476.873095 
L 457.813088 470.733473 
L 449.93265 463.998955 
L 441.023532 456.697145 
L 431.080885 448.842574 
L 417.374813 438.319769 
L 392.678569 419.409899 
L 382.759442 411.523164 
L 373.886555 404.175605 
L 366.92048 398.141234 
L 360.103078 391.941026 
L 354.278554 386.36457 
L 351.90943 384.009176 
L 351.90943 384.009176 
" style="fill:none;stroke:#1f77b4;stroke-linecap:square;stroke-width:1.5;"/>
   </g>
   <g id="line2d_55">
    <path clip-path="url(#p198597c99f)" d="M 122.537772 521.720867 
L 127.922163 514.242161 
L 134.151217 505.955212 
L 140.546883 497.79554 
L 147.831618 488.872919 
L 156.028565 479.209942 
L 165.145979 468.820095 
L 176.71549 455.985177 
L 205.345407 424.407023 
L 214.413542 413.972752 
L 221.79693 405.129818 
L 228.262859 397.02582 
L 233.770464 389.781129 
L 233.770464 389.781129 
" style="fill:none;stroke:#1f77b4;stroke-linecap:square;stroke-width:1.5;"/>
   </g>
   <g id="line2d_56">
    <path clip-path="url(#p198597c99f)" d="M 453.462228 521.720867 
L 448.077837 514.242161 
L 441.848783 505.955212 
L 435.453117 497.79554 
L 428.168382 488.872919 
L 419.971435 479.209942 
L 410.854021 468.820095 
L 399.28451 455.985177 
L 370.654593 424.407023 
L 361.586458 413.972752 
L 354.20307 405.129818 
L 347.737141 397.02582 
L 342.229536 389.781129 
L 342.229536 389.781129 
" style="fill:none;stroke:#1f77b4;stroke-linecap:square;stroke-width:1.5;"/>
   </g>
   <g id="line2d_57">
    <path clip-path="url(#p198597c99f)" d="M 154.38713 541.737812 
L 160.04338 531.176464 
L 165.831863 520.818775 
L 165.831863 520.818775 
L 172.203426 509.865915 
L 179.348505 498.032242 
L 187.275232 485.326764 
L 197.843847 468.83961 
L 224.071809 428.181059 
L 231.338619 416.421079 
L 237.804726 405.523284 
L 243.474017 395.495231 
L 243.474017 395.495231 
L 243.640441 395.192341 
L 243.640441 395.192341 
" style="fill:none;stroke:#1f77b4;stroke-linecap:square;stroke-width:1.5;"/>
   </g>
   <g id="line2d_58">
    <path clip-path="url(#p198597c99f)" d="M 421.61287 541.737812 
L 415.95662 531.176464 
L 410.168137 520.818775 
L 410.168137 520.818775 
L 403.796574 509.865915 
L 396.651495 498.032242 
L 388.724768 485.326764 
L 378.156153 468.83961 
L 351.928191 428.181059 
L 344.661381 416.421079 
L 338.195274 405.523284 
L 332.525983 395.495231 
L 332.525983 395.495231 
L 332.359559 395.192341 
L 332.359559 395.192341 
" style="fill:none;stroke:#1f77b4;stroke-linecap:square;stroke-width:1.5;"/>
   </g>
   <g id="line2d_59">
    <path clip-path="url(#p198597c99f)" d="M 187.508835 555.83342 
L 192.616277 542.493082 
L 198.136765 528.695859 
L 204.07097 514.445454 
L 210.91998 498.581972 
L 219.809073 478.581112 
L 241.896011 429.146849 
L 248.199279 414.301557 
L 253.385036 401.487425 
L 254.350055 399.01982 
L 254.350055 399.01982 
" style="fill:none;stroke:#1f77b4;stroke-linecap:square;stroke-width:1.5;"/>
   </g>
   <g id="line2d_60">
    <path clip-path="url(#p198597c99f)" d="M 388.491165 555.83342 
L 383.383723 542.493082 
L 377.863235 528.695859 
L 371.92903 514.445454 
L 365.08002 498.581972 
L 356.190927 478.581112 
L 334.103989 429.146849 
L 327.800721 414.301557 
L 322.614964 401.487425 
L 321.649945 399.01982 
L 321.649945 399.01982 
" style="fill:none;stroke:#1f77b4;stroke-linecap:square;stroke-width:1.5;"/>
   </g>
   <g id="line2d_61">
    <path clip-path="url(#p198597c99f)" d="M 222.062917 561.781128 
L 226.399383 544.341231 
L 231.346768 525.392902 
L 237.096756 504.273833 
L 244.896574 476.550236 
L 257.716162 431.091205 
L 262.179975 414.397888 
L 265.383803 401.780832 
L 265.383803 401.780832 
" style="fill:none;stroke:#1f77b4;stroke-linecap:square;stroke-width:1.5;"/>
   </g>
   <g id="line2d_62">
    <path clip-path="url(#p198597c99f)" d="M 353.937083 561.781128 
L 349.600617 544.341231 
L 344.653232 525.392902 
L 338.903244 504.273833 
L 331.103426 476.550236 
L 318.283838 431.091205 
L 313.820025 414.397888 
L 310.616197 401.780832 
L 310.616197 401.780832 
" style="fill:none;stroke:#1f77b4;stroke-linecap:square;stroke-width:1.5;"/>
   </g>
   <g id="line2d_63">
    <path clip-path="url(#p198597c99f)" d="M 266.289985 570.038708 
L 267.517709 541.726156 
L 268.92628 514.114132 
L 270.553477 486.514162 
L 272.476183 457.778529 
L 274.77829 426.759937 
L 276.623241 403.447248 
L 276.623241 403.447248 
" style="fill:none;stroke:#1f77b4;stroke-linecap:square;stroke-width:1.5;"/>
   </g>
   <g id="line2d_64">
    <path clip-path="url(#p198597c99f)" d="M 309.710015 570.038708 
L 308.482291 541.726156 
L 307.07372 514.114132 
L 305.446523 486.514162 
L 303.523817 457.778529 
L 301.22171 426.759937 
L 299.376759 403.447248 
L 299.376759 403.447248 
" style="fill:none;stroke:#1f77b4;stroke-linecap:square;stroke-width:1.5;"/>
   </g>
   <g id="line2d_65">
    <path clip-path="url(#p198597c99f)" d="M 288 492.0192 
L 288 404.0064 
L 288 404.0064 
" style="fill:none;stroke:#1f77b4;stroke-linecap:square;stroke-width:1.5;"/>
   </g>
   <g id="line2d_66">
    <path clip-path="url(#p198597c99f)" d="M 288 492.0192 
L 288 404.0064 
L 288 404.0064 
" style="fill:none;stroke:#1f77b4;stroke-linecap:square;stroke-width:1.5;"/>
   </g>
  </g>
 </g>
 <defs>
  <clipPath id="p198597c99f">
   <rect height="576" width="576" x="0" y="0"/>
  </clipPath>
 </defs>
</svg>
